<?xml version="1.0" encoding="utf-8"?>
<!-- Generator: Adobe Illustrator 14.0.0, SVG Export Plug-In . SVG Version: 6.00 Build 43363)  -->
<!DOCTYPE svg PUBLIC "-//W3C//DTD SVG 1.1//EN" "http://www.w3.org/Graphics/SVG/1.1/DTD/svg11.dtd">
<svg version="1.1" id="Layer_1" xmlns="http://www.w3.org/2000/svg" xmlns:xlink="http://www.w3.org/1999/xlink" x="0px" y="0px"
	 width="446.524px" height="81.948px" viewBox="0 0 446.524 81.948" enable-background="new 0 0 446.524 81.948"
	 xml:space="preserve">
<path fill="#00529C" d="M56.68,43.134c0.968-0.204,1.522-0.867,2.019-1.558l0.74-0.908c1.746-0.863,3.498-2.724,4.118-4.394
	c1.675-1.107,2.88-2.364,4.154-3.695l2.101-2.104c0.062-0.114,0.714-0.834,0.714-0.834c0.38-0.289,0.81-0.616,0.874-1.097
	l0.02-0.155c0,0-0.271-0.1-0.365-0.131c0.094,0.016,0.185,0.032,0.314,0.082c0.327,0.123,0.777,0.29,1.12-0.231
	c0.13-0.421-0.034-0.654-0.14-0.807c-0.073-0.113-0.632-0.454-0.632-0.454l-1.027,0.58l-0.497,0.407l-0.044,0.297l-0.197,0.171
	c-0.168,0.124-0.447,0.326-0.447,0.643c0,0.046,0.036,0.106,0.049,0.158c-0.983,0.154-1.61,0.839-2.178,1.56
	c-0.441,0.559-0.896,1.14-1.549,1.486c-1.311,0.154-1.872,0.979-2.412,1.776l-1.075,1.265c-1.562,0.21-2.366,1.135-3.143,2.025
	c-0.572,0.657-1.146,1.257-2.013,1.636C57.123,38.649,57,38.226,57,38.226l-0.379,0.039c-1.227,0.259-1.508,1.154-1.735,1.873
	c-0.272,0.864-0.466,1.488-1.958,1.232c-0.155,0.042-2.039,1.685-2.039,1.685c-1.299,1.174-2.643,2.39-4.289,3.26
	c-0.086-0.118-0.125-0.222-0.125-0.331c0-0.188,0.115-0.383,0.297-0.668l0.31-1.038c1.186-1.265,1.886-2.763,2.627-4.349
	l0.208-0.442c0.004,0,2.22-2.951,2.22-2.951l2.232-2.972c0.147-0.731,0.575-1.223,1.026-1.746l0.931-1.32
	c0.012-0.029,0.843-1.297,0.843-1.297c0.448-0.513,0.909-1.047,0.909-1.698c0-0.041-0.002-0.083-0.006-0.125
	c1.109-0.477,1.598-1.45,2.072-2.393l0.737-1.273c0.606-0.131,0.739-0.549,0.85-1.118c1.557-1.558,2.96-3.521,4.32-5.421
	c0,0,3.348-4.397,3.362-4.416c0.017,0.011,0.342-0.128,0.342-0.128c0.071-0.054,1.592-1.844,1.592-1.844
	c1.683-1.998,3.424-4.068,5.379-5.794c-0.063-0.769,0.327-1.181,0.738-1.612c0.499-0.526,1.065-1.122,0.631-2.069
	c-0.534-0.432-1.159-0.474-1.762-0.514c-0.644-0.042-1.25-0.083-1.63-0.488l-0.078-0.082l-1.84,0.46
	c-1.246-1.164-2.504-0.612-3.722-0.077c-0.885,0.387-1.798,0.791-2.79,0.51c-1.181,0.718-2.392,1.18-3.563,1.626
	c-1.72,0.656-3.499,1.337-4.675,2.754c0.017-0.017-5.792,4.487-5.792,4.487l-5.372,4.127c-0.62,0.94-1.51,1.567-2.373,2.173
	l-2.131,1.833c-0.251,0.126-0.294,0.374-0.294,0.6c0,0.069,0.014,0.311,0.014,0.357c0,0.176-0.049,0.238-0.299,0.261l-0.175,0.018
	v0.176c0,0.471-0.188,0.502-0.729,0.51c-0.463,0.01-1.038,0.021-1.379,0.602c0.017,0.105,0.025,0.203,0.025,0.292
	c0,0.698-0.52,0.94-1.323,1.262c-0.688,0.276-1.468,0.59-1.577,1.37c-2.218,1.634-4.346,3.47-6.25,5.329
	c-0.534,1.021-1.436,1.713-2.39,2.449c-0.936,0.72-1.904,1.463-2.524,2.516c-0.969,0.291-1.284,1.038-1.588,1.759
	c-0.219,0.517-0.427,1.009-0.908,1.382c-1.052,0.021-1.309,0.855-1.535,1.592c0,0-0.402,0.849-0.476,1.01
	c-0.167-0.093-0.331-0.198-0.549-0.183c-0.406,0.027-0.823,0.253-1.04,0.561c0.005,0.611-0.416,0.95-0.86,1.308
	c-0.509,0.408-1.086,0.871-0.899,1.615c-0.086,0.342-0.52,0.794-1.033,0.794c-1.461,0.07-1.76,1.219-2,2.146l-0.303,0.887
	c-1.028-0.093-1.58,0.728-2.067,1.451l-0.74,0.919c-0.012,0.012-0.293,0.939-0.293,0.939c-0.024,0.514-0.057,0.74-0.598,0.74
	c-0.996,0.566-1.42,1.375-1.828,2.16c-0.406,0.776-0.792,1.513-1.614,1.923C7.091,54.897,5.9,56.542,5.9,56.542l-1.144,1.547
	c-1.138,1.535-1.56,3.031-2.005,4.612l-0.595,1.951c-0.009,0.035-0.341,0.673-0.341,0.673c-0.285,0.407-0.639,0.913-0.255,1.562
	c-0.019-0.152-0.194,0.764-0.194,0.764c-0.131,0.9-0.254,1.75-1.112,1.975c-0.495,0.889-0.253,1.748,0.617,2.734
	c0.729,0.027,0.95,0.384,1.206,0.801c0.251,0.408,0.536,0.867,1.191,0.818l0.107-0.009c0,0,0.039-0.306,0.043-0.341
	c2.894,0.826,4.941-0.614,6.917-2.003c0.964-0.68,1.963-1.384,3.059-1.807c0.124-0.339,0.19-0.468,0.319-0.568
	c0.21-0.158,0.565-0.206,0.881-0.117c0.161-0.026,1.548-1.354,1.548-1.354c0.463-0.557,0.899-1.085,1.838-1.506
	c0.076-0.063,2.213-2.087,2.213-2.087c0.728-0.574,1.388-1.139,1.903-1.822c0.072,0.05,0.171,0.121,0.171,0.121l0.516,0.262
	c0.149-0.069,0.593-0.63,0.593-0.63c0.515-0.665,1-1.291,1.849-1.816l0.161-0.099l-0.096-0.164
	c-0.321-0.546-0.048-0.784,0.464-1.154c0.335-0.245,0.682-0.498,0.682-0.908v-0.072l-0.17-0.076l-0.085-0.1
	c0,0.004,0.218-0.173,0.218-0.173c1.025,0.092,1.553-0.483,2.065-1.036l1.242-0.98l-0.051-0.181
	c-0.022-0.032-0.038-0.057-0.038-0.084c0-0.056,0.064-0.125,0.269-0.278l0.389-0.376c0.005-0.05,0.006-0.124,0.006-0.2
	c0-0.177-0.009-0.38-0.009-0.38l0.673-0.316c0.347-0.092,0.707-0.183,0.83-0.483c0.026-0.064,0.039-0.132,0.039-0.206
	c0-0.124-0.082-0.277-0.156-0.43c0.144-0.105,1.194-0.87,1.194-0.87s0.356-0.219,0.597-0.369c0.048,0.141,0.106,0.283,0.106,0.429
	c0,0.877-0.791,1.82-1.451,2.505c-0.054,0.134-0.571,1.708-0.571,1.708c-0.283,0.575-0.573,1.166-0.573,1.8
	c0,0.151,0.03,0.306,0.065,0.462c-0.81,0.636-1.078,1.445-1.078,2.299c0,0.583,0.106,1.182,0.206,1.748l0.2,1.418l0.215-0.044
	c0.958-0.271,1.208,0.129,1.525,0.638c0.309,0.496,0.693,1.112,1.811,0.92c0.702-0.132,1.167-0.812,1.617-1.468l0.63-0.835
	c3.115-1.755,5.615-4.074,8.262-6.526l2.101-1.927c0.049-0.071,0.552-1.271,0.556-1.278c0.014,0.004,0.956-0.981,0.956-0.981
	c0.874-0.938,1.777-1.906,2.938-2.647c0.329-0.186,0.332-0.571,0.336-0.878c0.002-0.179,0.003-0.381,0.08-0.437
	c0.036-0.025,0.16-0.075,0.543,0.041c0.172-0.029,1.102-0.957,1.102-0.957c0.477-0.55,0.972-1.118,1.761-1.375
	c0.198-0.46,0.577-0.775,0.945-1.08c0.468-0.387,1.027-0.846,1.027-1.447C56.76,43.354,56.712,43.245,56.68,43.134z M45.71,31.144
	c-0.51,0.315-1.036,0.643-1.101,1.146c-0.005,0.032-0.006,0.063-0.006,0.098c0,0.21,0.158,0.435,0.33,0.661
	c-0.608,0.407-0.937,0.868-0.968,1.398c-0.573-0.317-1.12-0.029-1.534,0.27l-0.587,0.357c-0.873,0.279-0.916,1.006-0.947,1.534
	l-0.192,0.719l-0.798,0.071c-0.169,0.056-1.287,1.178-1.287,1.178l-0.14,0.14l0.247,0.223l0.252,0.244
	c-1.226,0.042-1.762,0.811-2.279,1.555c-0.427,0.614-0.83,1.194-1.656,1.417c-0.752,0.526-1.003,1.148-1.244,1.754
	c-0.244,0.611-0.473,1.188-1.154,1.642l-0.129,0.084l0.057,0.147c0.049,0.125,0.062,0.22,0.036,0.264
	c-0.048,0.085-0.28,0.128-0.484,0.166c-0.407,0.075-0.962,0.177-1.086,0.755c0.13-0.144-0.684,0.114-0.684,0.114
	c-0.098,0.07-1.219,1.45-1.219,1.45c-0.832,0.967-1.689,1.968-2.054,3.244c-0.059,0.015-0.749,0.449-0.749,0.449
	c-0.396,0.402-0.571,0.551-0.973,0.17c-1.091,0.385-1.705,1.105-2.299,1.799c-0.556,0.65-1.08,1.266-1.789,1.624
	c-1.541,1.622-3.152,2.884-4.857,4.224c0,0-1.854,1.473-1.878,1.494c-0.043,0.002-0.296,0.062-0.296,0.062l-0.58,0.079
	c-0.3-1.738,0.538-3.235,1.425-4.822l1.168-2.442c0.277-0.902,0.918-1.649,1.597-2.438c0.757-0.884,1.542-1.795,1.766-2.943
	c0.8-0.293,1.038-0.948,1.268-1.582c0.205-0.564,0.398-1.096,1.079-1.482c1.938-0.968,2.836-2.889,3.341-4.247
	c1.215-0.514,2.117-1.561,2.99-2.571l1.136-1.248c0.357-1.059,1.232-1.622,2.158-2.216l0.665-0.44
	c0.895-1.349,1.985-2.366,3.04-3.349c0.971-0.905,1.974-1.84,2.807-3.003c1.252-0.335,2.112-1.238,2.943-2.108l0.794-0.8
	c0.103-0.588,0.448-0.752,1.009-0.981c0.446-0.182,0.955-0.39,1.173-0.899c-0.069,0.084,5.021-3.861,5.021-3.861
	c2.006-1.663,4.083-3.381,6.5-4.861l-0.056,0.023l1.667-0.939c0.599-0.458,1.126-0.853,1.747-0.821
	c-0.537,1.206-1.361,2.343-2.186,3.437c-0.798,1.062-1.624,2.159-2.162,3.323c-1.14,0.56-1.721,1.537-2.283,2.482
	c-0.585,0.986-1.139,1.918-2.395,2.43c-0.112,0.124-1.131,1.679-1.131,1.679c-0.496,0.58-1.008,1.183-1.124,1.925
	c-0.545,0.038-0.662,0.5-0.756,0.871l-0.211,0.497C46.517,30.644,46.106,30.896,45.71,31.144z M83.175,15.398
	c0,0-0.083-0.098-0.16-0.188c0.008-0.008,0.037-0.042,0.037-0.042s-0.035-0.01-0.065-0.02c0.02-0.084,0.041-0.158-0.081-0.107
	l-0.019,0.021c-0.067-0.078-0.127-0.147-0.127-0.147l-0.305,0.345l-0.235,0.265l0.432,0.064
	C82.766,15.606,83.029,15.646,83.175,15.398z M76.559,22.586c-0.062-0.023-0.126-0.049-0.164-0.114v0.097
	c-0.105-0.054-0.194-0.097-0.194-0.097v0.625h0.194c0.148,0,0.499,0,0.499-0.281c0,0-0.087-0.042-0.187-0.092
	c-0.008-0.065-0.052-0.101-0.118-0.126c0-0.066,0-0.125,0-0.125S76.574,22.525,76.559,22.586z M74.147,25.69v-0.992h-0.693v0.992
	H74.147z M91.995,42.307c0.534-0.824,1.405-1.842,2.662-2.199c0.619-0.909,1.416-1.565,2.187-2.198
	c1.042-0.856,2.121-1.743,2.425-3.04c0.82-0.021,1.128-0.643,1.401-1.198l0.737-0.921c1.25-0.312,1.695-1.188,2.126-2.03
	c0.284-0.557,0.551-1.081,1.052-1.442c0.935-0.483,1.44-1.228,1.929-1.948c0.483-0.712,0.939-1.383,1.812-1.838
	c0.093-0.105,1.566-2.953,1.566-2.953c0.899-1.518,1.831-3.087,1.896-4.728l0.003-0.136l-0.185-0.063l-1.307-0.54
	c-0.625-0.378-1.274-0.767-2.124-0.49c-0.576,0.648-1.198,0.504-1.92,0.339c-0.848-0.195-1.813-0.417-2.368,0.893
	c-1.977,0.157-3.346,1.505-4.671,2.809c-0.831,0.817-1.613,1.588-2.568,2.107c-0.527,0.772-1.364,1.205-2.172,1.624
	c-1.049,0.544-2.08,1.148-2.403,2.32c-0.958-0.073-1.457,0.417-1.936,0.898l-0.819,0.69c-0.576-0.357-1.009,0.111-1.364,0.487
	c-0.38,0.407-0.611,0.652-1.164,0.221l-0.313-0.248v0.83c0.022,0.089,0.127,0.638,0.127,0.638c-0.091,0.231-0.475,0.367-0.847,0.499
	c-0.541,0.191-1.213,0.431-1.213,1.109c-0.086-0.017-0.297,0.051-0.422,0.01c0.108-1.45,0.657-2.574,1.568-3.505
	c0.014-0.015,0.14-1.008,0.14-1.008c-0.065-0.521-0.059-0.74,0.283-0.842c1.094-0.397,1.413-1.357,1.722-2.287l0.43-1.089
	c0-0.002,1.242-1.498,1.242-1.498c0.817-0.812,1.665-1.652,1.527-2.937c0.866-0.337,1.383-1.182,1.881-2
	c0.428-0.702,0.87-1.425,1.601-1.968c0.532-1.318,1.605-2.35,2.642-3.35c0.963-0.928,1.959-1.89,2.505-3.03
	c-0.028,0.042,1.731-1.755,1.731-1.755c1.596-1.53,3.249-3.108,3.475-5.216c-0.137-0.516-0.517-0.809-1.077-0.906l-0.042-0.005
	l-0.043,0.01c-1.548,0.441-2.201,0.494-3.542,0.007c-0.19,0.032-1.474,0.85-1.474,0.85c-0.744,0.407-1.513,0.828-1.917,1.573
	c-0.713,0.159-1.339,0.351-1.88,0.09l-0.172-0.085l-0.086,0.173C94.05,4.206,92.99,5.227,91.87,6.304
	c-0.956,0.919-1.943,1.87-2.617,2.931c-1.03-0.208-1.152,0.467-1.25,1.006l-0.433,0.932c-1.202-0.228-1.627,0.62-2.003,1.368
	l-0.712,1.065l0.014,0.143c0.078,0.152,0.109,0.331,0.109,0.52c0,0.444-0.171,0.948-0.307,1.349
	c-0.051,0.006-0.802,0.343-0.802,0.343c-0.404,0.241-0.752,0.451-1.232,0.361c-0.939,0.291-0.955,0.987-0.969,1.6l-0.068,0.7
	c-0.169,0.651-1.185,0.896-1.855,1.06l-0.191,0.048l0.011,0.198c0.051,0.192-0.091,0.31-0.404,0.514
	c-0.244,0.159-0.496,0.322-0.53,0.605c-0.022,0.192,0.065,0.39,0.269,0.607c0.161,0.061,1.05-0.393,1.05-0.393
	c0.301-0.244,0.488-0.322,0.74-0.188c-0.208,0.307-1.49,2.195-1.49,2.195l0.146,0.144l0.286,0.305l-0.322,0.583
	c-0.227,0.277-0.48,0.588-0.48,0.959c0,0.06,0.008,0.121,0.022,0.183c-0.021-0.068-0.545,0.735-0.545,0.735l-0.979,1.773
	c-0.006,0.047-0.283,0.557-0.283,0.557l-0.519,0.165l-0.001,0.006c-0.012,0-0.013-0.009-0.026-0.009l-0.028,0.387
	c0,0,0.026-0.01,0.028-0.01l0,0.01c0.122,0,0.17,0.026,0.173,0.038c0.003,0.008,0.004,0.018,0.004,0.028
	c0,0.175-0.337,0.634-0.693,0.877l-0.116,0.078l0.04,0.138c0.008,0.025,0.012,0.052,0.012,0.075c0,0.138-0.119,0.254-0.352,0.457
	c-0.243,0.212-0.557,0.484-0.557,0.901c0,0.119,0.028,0.253,0.091,0.4c-1.007,2.069-2.232,4.149-3.743,6.205
	c-0.329,1.785-1.315,3.265-2.36,4.832l-1.934,3.325c0.001,0.035,0.002,0.068,0.002,0.104c0,0.998-0.47,1.84-0.968,2.727
	c-0.507,0.904-1.031,1.839-1.084,2.938c-1.11,2.452-2.011,5.127-2.879,7.716l-1.991,5.612l-0.989,2.769
	c-0.637,1.905-1.298,3.877-2.451,5.664c-0.053,0.337-0.132,0.879-0.132,1.498c0,1.221,0.307,2.744,1.719,3.611
	c0.043,0.019,1.156-0.027,1.156-0.027c0.418-0.099,0.779-0.187,1.169,0.104l0.167,0.124l0.081-0.14l0.732-1.151
	c0.381-0.8,0.71-1.491,1.865-1.387c1.238-0.901,1.458-2.015,1.635-3.108c0.015,0.099,0.092,0.618,0.092,0.618l0.275-0.351
	l1.321-1.405c0.979-0.949,1.993-1.93,2.274-3.249c1.21-0.715,1.345-1.992,1.477-3.227c0.097-0.916,0.189-1.784,0.725-2.485
	c0.087-0.962,0.544-1.676,1.027-2.431c0.489-0.767,0.994-1.556,1.047-2.512c0.644-0.156,0.982-0.862,1.282-1.483l0.411-0.747
	c0.362-1.33,1.558-2.231,2.714-3.1c0.902-0.681,1.836-1.384,2.38-2.268c0.702,0.176,1.855-0.053,2.439-0.947
	c3.489-1.612,6.365-4.493,9.145-7.278L91.995,42.307z M288.714,24.561c-0.925,0.251-1.519-0.087-2.149-0.448
	c-0.629-0.36-1.278-0.734-2.023-0.344c0.083-0.022-11.297-0.041-11.297-0.041c-6.341-0.122-12.898-0.248-19.261,0.624
	c-1.312-0.341-2.743,0.004-4.124,0.338l-1.177,0.271c-0.709-0.49-1.505-0.223-2.207,0.016c-0.571,0.194-1.113,0.377-1.65,0.166
	c-1.986,0.522-5.053,0.97-7.563,0.508c-1.123,0.611-2.276,0.578-3.502,0.547c-1.179-0.032-2.394-0.068-3.442,0.511
	c-1.188-0.378-2.453-0.209-3.673-0.044c-1.157,0.154-2.353,0.315-3.616,0.025c-0.046-0.006-1.006,0.203-1.006,0.203
	c-0.48,0.167-0.86,0.296-1.363-0.082c-0.761,0.258-1.483,0.197-2.247,0.134c-0.815-0.066-1.661-0.134-2.42,0.186
	c0.09-0.015-3.642-0.613-3.642-0.613c-0.892,0.136-1.824-0.01-2.727-0.152l-2.214-0.199c-0.73-0.622-1.507-0.358-2.257-0.102
	l-1.013,0.277c-1.194-0.758-2.658-0.541-4.076-0.33l-2.488,0.159c-0.107,0.015-2.192,0.607-2.192,0.607
	c-1,0.197-2.024,0.426-2.831,1.102c-0.692-0.453-1.128-0.194-1.498,0.084l-0.828,0.363c-1.208-0.185-2.483,0.183-3.718,0.54
	c0,0-1.593,0.411-1.603,0.412c-0.021-0.022-1.235-0.456-1.235-0.456c-0.86-0.18-1.388-0.323-1.388-0.995
	c0.646-0.289,0.75-1.052,0.843-1.725l0.339-1.186c0.671,0.154,1.083-0.304,1.482-0.746l0.42-0.428
	c0.182-0.191,0.255-0.373,0.233-0.548c-0.039-0.317-0.356-0.52-0.662-0.713c0.09,0.178,0.292-2.499,0.292-2.499l0.015-0.21h-0.208
	c-0.356,0-0.486,0.284-0.582,0.49c-0.112,0.245-0.185,0.37-0.432,0.374c0-0.035-0.496-0.458-0.496-0.458l-0.419-0.46
	c-1.249-0.708-2.75-0.184-4.053,0.418c-0.876,0.629-1.833,0.958-2.759,1.272c-1.271,0.435-2.585,0.883-3.61,2.058
	c-2.341,0.63-4.342,2.218-6.187,3.784c-1.136,0.302-2.028,0.968-2.893,1.611l-2.241,1.377c-1.109,0.289-2.115,0.879-3.087,1.45
	c-1.311,0.768-2.568,1.462-4.083,1.521c0.012-0.536,0.419-0.885,0.89-1.277l1.036-1.175c0.341-1.366,1.146-2.391,2.076-3.579
	c0,0,0.387-0.497,0.483-0.62c0.153,0.025,0.326,0.054,0.326,0.054l0.767-0.673c0.748,0.095,1.028-0.436,1.298-0.948l0.609-0.898
	l-0.134-0.142c-0.422-0.287-0.422-0.715-0.422-1.306c0.235-0.421,0.635-0.413,1.099-0.402c0.448,0.012,1.003,0.026,1.134-0.686
	l0.026-0.144c0,0-0.266-0.133-0.387-0.193c0.133-0.051,0.978-0.375,0.978-0.375l0.093-0.485c-0.405-0.402-0.639-0.179-0.739-0.083
	l-0.046-0.03l-0.218,0.043c-0.098,0-0.218-0.07-0.237-0.1c0.115-0.735-0.516-0.86-0.932-0.945l-0.457-0.135
	c-0.056-0.191,0.075-0.339,0.43-0.64c0.336-0.915,0.174-1.614-0.408-2.107c-0.125-0.047-1.459-0.234-1.459-0.234
	c-1.105-0.222-2.357-0.478-3.284,0.508c-0.01,0.785-0.341,0.836-1.03,0.878c-0.463,0.032-0.941,0.124-1.213,0.522
	c-1.399-0.313-2.471,0.353-3.504,1.011l-1.503,0.821c-0.169,0.816-0.584,0.904-1.317,1.002c-0.592,0.08-1.264,0.171-1.541,0.831
	c-0.859,0.099-1.658,0.615-2.429,1.113l-1.532,0.857c-1.613-0.275-2.454,0.682-3.268,1.609c-0.807,0.923-1.588,1.773-3.225,1.437
	c0.126-0.359,0.395-1.118,0.395-1.118c0.092-0.51,0.177-0.994,0.513-1.357c0.048-0.098,0.23-0.987,0.23-0.987
	c0.143-0.641,0.293-1.317,0.293-1.964c0-1.012-0.366-1.963-1.7-2.622c-0.583-0.228-1.058-0.073-1.472,0.064
	c-0.48,0.156-0.859,0.279-1.335-0.125c-0.205-0.266-0.305-0.651-0.226-0.936c0.053-0.18,0.176-0.306,0.368-0.377l0.354-0.127
	l-0.679-0.468c-0.386-0.238-0.621-0.402-0.566-0.767l0.023-0.156l-0.149-0.054c-0.626-0.229-1.006,0.28-1.313,0.688
	c0,0-0.349,0.405-0.385,0.445c-0.042-0.02-0.237-0.032-0.237-0.032c-0.238,0.021-0.321,0.021-0.397-0.137
	c-1.493-0.689-2.221,0.116-2.865,0.825c-0.383,0.425-0.746,0.825-1.231,0.969c-0.024,0.01-0.923,0.385-0.923,0.385
	c-1.59,0.639-3.389,1.362-3.389,3.134c0,0.043,0.002,0.087,0.003,0.133c-0.032-0.017-3.56,5.377-3.56,5.377
	c-1.854,2.951-3.771,6-6.16,8.831c-0.02,0.025-3.085,4.668-3.085,4.668c-1.663,2.379-3.382,4.839-4.574,7.558
	c0.019-0.032-3.716,5.705-3.716,5.705l-3.487,5.404c-0.57,1.404-1.441,2.626-2.281,3.809c-1.169,1.639-2.375,3.335-2.737,5.428
	c-0.653,1.412-1.234,2.881-1.018,4.806c0.066,0.126,1.898,1.681,1.898,1.681c0.616,0.346,1.095,0.444,1.496,0.322
	c0.567-0.171,0.864-0.743,1.15-1.297c0.267-0.509,0.54-1.04,1.013-1.239c1.495-0.296,3.092-1.262,4.341-2.64c0,0,0,0,0-0.002
	c0-1.34,0.902-2.005,1.858-2.706c0.86-0.632,1.753-1.286,2.051-2.383c2.279-0.295,2.336-2.11,2.391-3.862
	c0.036-1.177,0.075-2.397,0.822-3.23c0.972-1.14,1.618-2.464,2.242-3.747c0.737-1.509,1.52-3.057,2.815-4.303
	c0.202,0.229,0.492,0.555,0.492,0.555c0.268,0.205,0.52,0.399,0.52,0.629v0.133l0.126,0.045c0.71,0.271,1.438-0.048,2.134-0.357
	l0.967-0.378l0.008-0.146c-0.06-0.988,0.869-1.548,1.766-2.086l1.233-0.878c0.923-0.337,1.662-1.27,2.313-2.095l0.341-0.421
	c0.014-0.02,1.425-1.538,1.425-1.538c0.729-0.663,1.416-1.291,1.662-2.07c1.282-0.651,2.433-1.684,3.543-2.684
	c1.065-0.956,2.166-1.945,3.493-2.737c-0.038,0.017,1.158-0.888,1.158-0.888c0.423-0.439,0.825-0.853,1.373-0.812
	c0.702-0.097,1.177-0.467,1.416-1.072c-0.094,0.102,5.863-3.304,5.863-3.304l3.715-2.215c0.685-0.083,1.347-0.573,1.986-1.048
	l1.346-0.839c0.038-0.025,0.17-0.166,0.295-0.297c0.135,0.134,0.517,0.513,0.517,0.513c-0.448,1.417-1.963,2.772-3.239,3.77
	c-0.545,1.006-1.312,1.822-2.121,2.685l-1.473,1.668c-0.136,0.821-0.522,1.568-1.103,2.142c-1.618,2.465-2.115,5.084-2.597,7.615
	c0.049,0.17,0.985,1.68,0.985,1.68c0.54,1.093,1.096,2.221,2.729,2.521c0.5-0.562,1.107-0.688,1.691-0.808
	c0.667-0.141,1.358-0.283,1.486-0.988c-0.075,0.12,2.585-1.495,2.585-1.495l2.838-1.759c1.279-1.164,2.823-2.021,4.314-2.851
	c1.715-0.954,3.488-1.939,4.861-3.385c1.058-0.079,1.857-0.756,2.631-1.413c0.762-0.647,1.48-1.257,2.541-1.38
	c0.479-0.941,1.301-1.348,2.172-1.781c0.608-0.302,1.204-0.648,1.658-1.115c0.208,0.109,0.375,0.221,0.404,0.33
	c0.003,0.017,0.006,0.036,0.006,0.054c0,0.171-0.174,0.398-0.342,0.617c-0.222,0.288-0.467,0.609-0.467,0.965
	c0,0.06,0.007,0.119,0.021,0.177c-0.071,0.611-0.125,1.287-0.125,1.976c0,2.357,0.63,4.917,3.396,6.021
	c0.832,0.472,1.53,0.103,2.146-0.226c0.605-0.319,1.126-0.597,1.796-0.217c0.16,0.015,1.584-0.419,1.584-0.419
	c1.138-0.329,2.316-0.668,3.194-1.227c0.005-0.042,0.009-0.081,0.009-0.12c0-0.289-0.154-0.472-0.338-0.599
	c0.238-0.062,0.477-0.124,0.477-0.124c0.391,0.587,1.013,0.398,1.561,0.231c0.538-0.162,0.962-0.289,1.396,0.226
	c0.195,0.064,0.709-0.29,0.709-0.29s-0.025-0.685-0.031-0.869c0.195-0.015,0.402-0.034,0.597-0.051c0,0.241,0,0.884,0,0.884
	l1.816-0.324c0.948-0.137,1.931-0.284,2.736-0.682c2.071-1.138,3.89-0.394,5.814,0.392c1.174,0.48,2.386,0.977,3.658,1.01
	c1.861,0.279,3.757,0.207,5.587,0.134l4.569,0.037c0.042,0,0.947-0.21,0.947-0.21c0.511-0.149,0.991-0.292,1.457-0.143
	c7.233-0.253,14.353-0.946,21.032-1.633c1.057,0.751,2.126,0.387,3.156,0.036c0.643-0.221,1.309-0.446,1.994-0.382
	c0.383,0.587,1.01,0.385,1.51,0.221c0.426-0.14,0.792-0.26,1.142,0c9.836-1.049,20.019-0.874,29.869-0.706l3.305,0.056
	c-0.004,0,1.058,0.107,1.058,0.107c1.422,0.173,3.031,0.373,3.981-0.875c0.133-0.258,0.195-0.516,0.195-0.762
	c0-0.17-0.027-0.334-0.094-0.484c-0.137-0.333-0.419-0.574-0.808-0.698c0.089-0.037,0.168-0.137,0.314-0.302
	c0,0,0.061-0.086,0.118-0.169c1.021,0.249,1.561-0.183,2.073-0.618l1.233-0.695c1.177,0.06,1.611-0.67,1.993-1.312
	c0.281-0.473,0.546-0.918,1.09-1.115l0.291-0.104l-0.331-0.309c0,0-0.219-0.211-0.237-0.229c0.019-0.02,0.047-0.009,0.064-0.034
	c0,0-0.064,0.003-0.097,0.003c-0.018-0.02-0.053-0.054-0.085-0.084c0.012-0.011,0.005-0.021,0.023-0.031
	c-0.009,0.013-0.021,0.014-0.03,0.022c-0.023-0.022-0.05-0.046-0.05-0.046l-0.081-0.087c-0.06,0.085-0.173,0.062-0.495-0.059
	c0,0-0.481-0.044-0.777-0.071c0-0.185,0-0.535,0-0.535c0.294-0.922,1.07-1,1.968-1.097l1.376-0.282
	c0.099-0.091,0.548-0.646,0.548-0.646l0.601-1.035L288.714,24.561z M221.864,36.464c0-0.084,0.404-0.258,0.404-0.084
	C222.269,36.555,221.968,36.464,221.864,36.464z M232.853,35.517h-0.51c0.102-0.173,0.201-0.432,0.51-0.173V35.517z M234.273,35.517
	h-0.403c-0.409-0.261,0.203-0.52,0.303-0.692c0.409-0.085,0.814,0.088,0.916,0.26C235.191,35.43,234.582,35.774,234.273,35.517z
	 M246.686,33.961l0.103-0.344c0.305,0.084,0.915,0.084,0.915,0.431L246.686,33.961z M258.794,33.356
	c-0.816,0.345-1.832,0.26-2.646,0.086l-0.203-0.344c0.916,0.344,1.83-0.088,2.85,0.085V33.356z M262.147,33.356
	c0.307,0,0.917-0.432,1.324,0H262.147z M263.879,33.271l0.306-0.171l0.1,0.085L263.879,33.271z M266.624,33.184l0.307-0.52
	c0.305,0.172,0.914,0,0.813,0.52C267.439,33.271,266.931,33.271,266.624,33.184z"/>
<path fill="#DA521F" d="M148.093,75.818c1.756,0.631,4.396-0.397,5.896-2.302c1.499-1.902,1.295-3.955-0.461-4.586
	c-1.755-0.631-4.395,0.396-5.896,2.301C146.13,73.133,146.335,75.186,148.093,75.818z"/>
<g>
	<g>
		<path fill="#808285" d="M167.652,68.037c1.027-0.475,2.411-0.771,3.536-0.771c3.102,0,4.387,1.283,4.387,4.287v1.305
			c0,1.028,0.02,1.799,0.04,2.549c0.019,0.771,0.059,1.482,0.118,2.273h-2.331c-0.1-0.535-0.1-1.206-0.119-1.522h-0.039
			c-0.612,1.124-1.937,1.757-3.142,1.757c-1.798,0-3.557-1.086-3.557-3.021c0-1.521,0.73-2.411,1.739-2.905
			c1.007-0.493,2.312-0.593,3.418-0.593h1.462c0-1.638-0.731-2.193-2.293-2.193c-1.125,0-2.251,0.436-3.141,1.107L167.652,68.037z
			 M170.755,75.98c0.81,0,1.442-0.356,1.857-0.909c0.434-0.572,0.553-1.304,0.553-2.095h-1.146c-1.186,0-2.943,0.198-2.943,1.759
			C169.075,75.604,169.806,75.98,170.755,75.98z"/>
		<path fill="#808285" d="M178.183,67.505h2.529v1.443h0.039c0.594-0.988,1.602-1.682,3.162-1.682c3.121,0,4.268,2.491,4.268,5.297
			c0,2.784-1.146,5.352-4.326,5.352c-1.127,0-2.056-0.275-2.984-1.4h-0.039v5.314h-2.648V67.505z M180.851,72.563
			c0,1.441,0.573,3.299,2.331,3.299c1.739,0,2.233-1.898,2.233-3.299c0-1.364-0.475-3.242-2.193-3.242
			C181.522,69.321,180.851,71.14,180.851,72.563z"/>
		<path fill="#808285" d="M190.255,67.505h2.529v1.443h0.04c0.593-0.988,1.599-1.682,3.16-1.682c3.122,0,4.268,2.491,4.268,5.297
			c0,2.784-1.146,5.352-4.327,5.352c-1.126,0-2.056-0.275-2.984-1.4h-0.039v5.314h-2.647V67.505z M192.923,72.563
			c0,1.441,0.572,3.299,2.331,3.299c1.739,0,2.232-1.898,2.232-3.299c0-1.364-0.475-3.242-2.192-3.242
			C193.594,69.321,192.923,71.14,192.923,72.563z"/>
		<path fill="#808285" d="M202.285,67.505h2.47v1.422h0.039c0.83-1.245,2.036-1.66,3.023-1.66c1.422,0,2.431,0.535,3.004,1.799
			c0.612-1.226,1.936-1.799,3.181-1.799c2.509,0,3.22,1.72,3.22,3.992v6.422h-2.647v-6.066c0-0.949,0-2.293-1.521-2.293
			c-1.76,0-1.977,2.096-1.977,3.42v4.939h-2.646v-6.066c0-0.949,0-2.293-1.521-2.293c-1.759,0-1.977,2.096-1.977,3.42v4.939h-2.647
			V67.505z"/>
	</g>
	<g>
		<path fill="#808285" d="M239.249,77.681v-6.699c0-1.422-0.535-2.549-2.135-2.549c-1.363,0-2.707,1.167-2.707,3.676v5.572h-1.244
			v-6.699c0-1.422-0.533-2.549-2.131-2.549c-1.367,0-2.709,1.167-2.709,3.676v5.572h-1.244v-7.707c0-0.771,0-1.561-0.08-2.371h1.205
			v1.7l0.041,0.019c0.395-0.69,0.988-1.956,3.141-1.956c0.889,0,2.352,0.376,2.668,2.134h0.037c0.457-1.185,1.641-2.134,3.223-2.134
			c2.033,0,3.18,1.425,3.18,3.381v6.935H239.249z"/>
		<path fill="#808285" d="M249.739,76.06H249.7c-0.551,1.204-1.955,1.855-3.201,1.855c-2.865,0-3.318-1.935-3.318-2.844
			c0-3.378,3.596-3.536,6.203-3.536h0.238V71.02c0-1.717-0.611-2.587-2.293-2.587c-1.047,0-2.035,0.237-2.963,0.832v-1.209
			c0.77-0.374,2.074-0.69,2.963-0.69c2.492,0,3.537,1.127,3.537,3.755v4.445c0,0.811,0,1.422,0.1,2.115h-1.227V76.06z
			 M249.622,72.603h-0.357c-2.152,0-4.719,0.216-4.719,2.431c0,1.323,0.947,1.817,2.094,1.817c2.922,0,2.982-2.551,2.982-3.635
			V72.603z"/>
		<path fill="#808285" d="M254.245,69.974c0-0.771,0-1.561-0.08-2.371h1.207v1.799h0.039c0.414-0.909,1.166-2.036,3.26-2.036
			c2.488,0,3.436,1.659,3.436,3.874v6.441h-1.242v-6.127c0-1.896-0.672-3.121-2.393-3.121c-2.27,0-2.982,1.997-2.982,3.676v5.572
			h-1.244V69.974z"/>
		<path fill="#808285" d="M271.435,76.06h-0.039c-0.553,1.204-1.957,1.855-3.203,1.855c-2.863,0-3.318-1.935-3.318-2.844
			c0-3.378,3.596-3.536,6.205-3.536h0.236V71.02c0-1.717-0.613-2.587-2.293-2.587c-1.045,0-2.033,0.237-2.963,0.832v-1.209
			c0.771-0.374,2.076-0.69,2.963-0.69c2.49,0,3.539,1.127,3.539,3.755v4.445c0,0.811,0,1.422,0.098,2.115h-1.225V76.06z
			 M271.315,72.603h-0.355c-2.154,0-4.723,0.216-4.723,2.431c0,1.323,0.947,1.817,2.094,1.817c2.926,0,2.984-2.551,2.984-3.635
			V72.603z"/>
		<path fill="#808285" d="M283.921,76.851c0,2.806-1.266,5.098-4.723,5.098c-1.324,0-2.527-0.376-3.041-0.534l0.098-1.245
			c0.771,0.395,1.879,0.711,2.963,0.711c3.203,0,3.479-2.331,3.479-5.176h-0.041c-0.67,1.463-1.779,1.977-3.061,1.977
			c-3.221,0-4.248-2.806-4.248-5.04c0-3.062,1.186-5.275,4.148-5.275c1.344,0,2.213,0.178,3.141,1.384h0.039v-1.146h1.246V76.851z
			 M279.614,76.611c2.25,0,3.061-2.134,3.061-3.971c0-2.429-0.709-4.208-2.982-4.208c-2.369,0-2.982,2.252-2.982,4.208
			C276.71,74.616,277.501,76.611,279.614,76.611z"/>
		<path fill="#808285" d="M294.097,77.364c-0.871,0.354-1.996,0.551-2.924,0.551c-3.34,0-4.584-2.251-4.584-5.274
			c0-3.081,1.697-5.275,4.248-5.275c2.844,0,4.01,2.292,4.01,4.999v0.631h-6.896c0,2.135,1.146,3.855,3.32,3.855
			c0.908,0,2.232-0.376,2.826-0.752V77.364z M293.483,71.931c0-1.76-0.711-3.498-2.57-3.498c-1.836,0-2.963,1.839-2.963,3.498
			H293.483z"/>
		<path fill="#808285" d="M309.804,77.681v-6.699c0-1.422-0.533-2.549-2.135-2.549c-1.361,0-2.705,1.167-2.705,3.676v5.572h-1.246
			v-6.699c0-1.422-0.533-2.549-2.135-2.549c-1.361,0-2.705,1.167-2.705,3.676v5.572h-1.246v-7.707c0-0.771,0-1.561-0.076-2.371
			h1.203v1.7l0.039,0.019c0.395-0.69,0.988-1.956,3.141-1.956c0.893,0,2.352,0.376,2.668,2.134h0.041
			c0.453-1.185,1.641-2.134,3.219-2.134c2.037,0,3.182,1.425,3.182,3.381v6.935H309.804z"/>
		<path fill="#808285" d="M321.263,77.364c-0.871,0.354-1.996,0.551-2.924,0.551c-3.34,0-4.584-2.251-4.584-5.274
			c0-3.081,1.697-5.275,4.248-5.275c2.844,0,4.01,2.292,4.01,4.999v0.631h-6.896c0,2.135,1.146,3.855,3.322,3.855
			c0.908,0,2.232-0.376,2.824-0.752V77.364z M320.651,71.931c0-1.76-0.713-3.498-2.57-3.498c-1.838,0-2.965,1.839-2.965,3.498
			H320.651z"/>
		<path fill="#808285" d="M324.8,69.974c0-0.771,0-1.561-0.08-2.371h1.207v1.799h0.037c0.418-0.909,1.166-2.036,3.262-2.036
			c2.488,0,3.438,1.659,3.438,3.874v6.441h-1.246v-6.127c0-1.896-0.672-3.121-2.389-3.121c-2.273,0-2.982,1.997-2.982,3.676v5.572
			H324.8V69.974z"/>
		<path fill="#808285" d="M340.548,68.67h-2.293v6.521c0,0.907,0.336,1.659,1.344,1.659c0.475,0,0.791-0.101,1.145-0.239l0.08,1.028
			c-0.297,0.117-0.908,0.275-1.523,0.275c-2.211,0-2.291-1.52-2.291-3.356V68.67h-1.977v-1.067h1.977v-2.429l1.246-0.437v2.865
			h2.293V68.67z"/>
		<path fill="#808285" d="M355.661,68.948c-0.672-0.298-1.482-0.516-2.154-0.516c-2.428,0-3.795,1.758-3.795,4.208
			c0,2.292,1.385,4.21,3.656,4.21c0.789,0,1.523-0.178,2.271-0.455l0.119,1.165c-0.85,0.298-1.641,0.354-2.59,0.354
			c-3.236,0-4.818-2.469-4.818-5.274c0-3.103,1.994-5.275,4.977-5.275c1.209,0,2.076,0.278,2.432,0.396L355.661,68.948z"/>
		<path fill="#808285" d="M362.22,67.365c3.26,0,4.703,2.53,4.703,5.275c0,2.747-1.443,5.274-4.703,5.274s-4.701-2.527-4.701-5.274
			C357.519,69.896,358.96,67.365,362.22,67.365z M362.22,76.851c2.174,0,3.34-1.879,3.34-4.21s-1.166-4.208-3.34-4.208
			s-3.34,1.877-3.34,4.208S360.046,76.851,362.22,76.851z"/>
		<path fill="#808285" d="M369.688,69.974c0-0.771,0-1.561-0.08-2.371h1.207v1.799h0.039c0.414-0.909,1.166-2.036,3.26-2.036
			c2.488,0,3.436,1.659,3.436,3.874v6.441h-1.242v-6.127c0-1.896-0.672-3.121-2.393-3.121c-2.271,0-2.982,1.997-2.982,3.676v5.572
			h-1.244V69.974z"/>
		<path fill="#808285" d="M380.317,76.218c0.752,0.374,1.658,0.633,2.627,0.633c1.186,0,2.234-0.652,2.234-1.799
			c0-2.392-4.842-2.016-4.842-4.939c0-1.994,1.621-2.747,3.279-2.747c0.535,0,1.602,0.12,2.488,0.456l-0.117,1.086
			c-0.65-0.295-1.541-0.475-2.232-0.475c-1.285,0-2.172,0.396-2.172,1.68c0,1.876,4.959,1.641,4.959,4.939
			c0,2.135-1.996,2.863-3.518,2.863c-0.967,0-1.936-0.117-2.824-0.475L380.317,76.218z"/>
		<path fill="#808285" d="M397.054,75.308c0,0.771,0,1.563,0.076,2.373h-1.203v-1.799h-0.039c-0.416,0.907-1.168,2.033-3.26,2.033
			c-2.49,0-3.439-1.658-3.439-3.87v-6.442h1.244v6.126c0,1.896,0.674,3.122,2.391,3.122c2.273,0,2.984-1.997,2.984-3.676v-5.572
			h1.246V75.308z"/>
		<path fill="#808285" d="M400.587,62.862h1.248v14.818h-1.248V62.862z"/>
		<path fill="#808285" d="M409.737,68.67h-2.293v6.521c0,0.907,0.336,1.659,1.344,1.659c0.475,0,0.791-0.101,1.146-0.239
			l0.078,1.028c-0.297,0.117-0.908,0.275-1.521,0.275c-2.211,0-2.293-1.52-2.293-3.356V68.67h-1.975v-1.067h1.975v-2.429
			l1.246-0.437v2.865h2.293V68.67z"/>
		<path fill="#808285" d="M418.173,76.06h-0.039c-0.555,1.204-1.955,1.855-3.203,1.855c-2.863,0-3.318-1.935-3.318-2.844
			c0-3.378,3.598-3.536,6.205-3.536h0.236V71.02c0-1.717-0.611-2.587-2.293-2.587c-1.045,0-2.033,0.237-2.963,0.832v-1.209
			c0.771-0.374,2.076-0.69,2.963-0.69c2.492,0,3.539,1.127,3.539,3.755v4.445c0,0.811,0,1.422,0.096,2.115h-1.223V76.06z
			 M418.054,72.603h-0.355c-2.152,0-4.723,0.216-4.723,2.431c0,1.323,0.949,1.817,2.096,1.817c2.924,0,2.982-2.551,2.982-3.635
			V72.603z"/>
		<path fill="#808285" d="M422.677,69.974c0-0.771,0-1.561-0.078-2.371h1.205v1.799h0.037c0.418-0.909,1.168-2.036,3.262-2.036
			c2.488,0,3.438,1.659,3.438,3.874v6.441h-1.244v-6.127c0-1.896-0.672-3.121-2.391-3.121c-2.273,0-2.982,1.997-2.982,3.676v5.572
			h-1.246V69.974z"/>
		<path fill="#808285" d="M438.425,68.67h-2.293v6.521c0,0.907,0.336,1.659,1.344,1.659c0.475,0,0.791-0.101,1.146-0.239
			l0.078,1.028c-0.295,0.117-0.908,0.275-1.521,0.275c-2.211,0-2.291-1.52-2.291-3.356V68.67h-1.977v-1.067h1.977v-2.429
			l1.244-0.437v2.865h2.293V68.67z"/>
		<path fill="#808285" d="M440.3,76.218c0.752,0.374,1.66,0.633,2.629,0.633c1.186,0,2.232-0.652,2.232-1.799
			c0-2.392-4.84-2.016-4.84-4.939c0-1.994,1.619-2.747,3.277-2.747c0.535,0,1.602,0.12,2.492,0.456l-0.119,1.086
			c-0.652-0.295-1.543-0.475-2.234-0.475c-1.283,0-2.172,0.396-2.172,1.68c0,1.876,4.959,1.641,4.959,4.939
			c0,2.135-1.996,2.863-3.516,2.863c-0.969,0-1.938-0.117-2.826-0.475L440.3,76.218z"/>
	</g>
</g>
</svg>
