<?xml version="1.0" encoding="UTF-8" standalone="no"?>
<svg width="30px" height="30px" viewBox="0 0 30 30" version="1.1" xmlns="http://www.w3.org/2000/svg" xmlns:xlink="http://www.w3.org/1999/xlink" xmlns:sketch="http://www.bohemiancoding.com/sketch/ns">
    <!-- Generator: Sketch 3.1 (8751) - http://www.bohemiancoding.com/sketch -->
    <title>Imported Layers</title>
    <desc>Created with Sketch.</desc>
    <defs></defs>
    <g id="Welcome" stroke="none" stroke-width="1" fill="none" fill-rule="evenodd" sketch:type="MSPage">
        <g id="Desktop-HD" sketch:type="MSArtboardGroup" transform="translate(-249.000000, -990.000000)">
            <g id="footer" sketch:type="MSLayerGroup" transform="translate(250.000000, 991.000000)">
                <g id="Twitter-logo-+-Bitmap-+-Imported-Layers-2" sketch:type="MSShapeGroup">
                    <g id="Imported-Layers">
                        <path d="M27.3323462,28.6789968 C28.2156776,28.6789968 28.9317895,27.9691447 28.9317895,27.0935347 L28.9317895,1.53734931 C28.9317895,0.66152411 28.2156776,-0.0481128014 27.3323462,-0.0481128014 L1.55101477,-0.0481128014 C0.667357656,-0.0481128014 -0.0485370765,0.66152411 -0.0485370765,1.53734931 L-0.0485370765,27.0935347 C-0.0485370765,27.9691447 0.667357656,28.6789968 1.55101477,28.6789968 L27.3323462,28.6789968" id="Fill-1" fill="#3B5998"></path>
                        <path d="M19.9474354,28.6789968 L19.9474354,17.5543915 L23.7145424,17.5543915 L24.2784194,13.2188576 L19.9474354,13.2188576 L19.9474354,10.4508108 C19.9474354,9.19557262 20.2990306,8.34019805 22.1149905,8.34019805 L24.4310886,8.3391217 L24.4310886,4.4614667 C24.0303048,4.4087256 22.6556306,4.29065011 21.0560787,4.29065011 C17.7169016,4.29065011 15.4307727,6.31106487 15.4307727,10.0215629 L15.4307727,13.2188576 L11.6541104,13.2188576 L11.6541104,17.5543915 L15.4307727,17.5543915 L15.4307727,28.6789968 L19.9474354,28.6789968" id="Fill-2" fill="#FFFFFF"></path>
                    </g>
                </g>
            </g>
        </g>
    </g>
</svg>