<?xml version="1.0" encoding="utf-8"?>
<!-- Generator: Adobe Illustrator 14.0.0, SVG Export Plug-In . SVG Version: 6.00 Build 43363)  -->
<!DOCTYPE svg PUBLIC "-//W3C//DTD SVG 1.1//EN" "http://www.w3.org/Graphics/SVG/1.1/DTD/svg11.dtd">
<svg version="1.1" id="Layer_1" xmlns="http://www.w3.org/2000/svg" xmlns:xlink="http://www.w3.org/1999/xlink" x="0px" y="0px"
	 width="399.925px" height="319.126px" viewBox="0 0 399.925 319.126" enable-background="new 0 0 399.925 319.126"
	 xml:space="preserve">
<path fill="#0091FF" d="M0.34,118.962c2.66-0.18,3.54-1.238,3.54-4.062v-29.1c-0.18-3.158-0.72-3.698-3.7-4.038l0.52-4.238h15.52
	l-0.18,4.238h-0.18c-1.94,0-3,1.582-3,4.4v10.938L23.8,85.104c1.04-1.063,1.22-1.404,1.22-1.943c0-0.697-0.88-1.398-2.28-1.398
	h-0.36l0.36-4.238h14.28l-0.36,4.4L22.2,96.382l12.88,20.278c1.04,1.582,1.94,2.122,3.7,2.302l-0.36,4.4H28.38l-12-20.28
	l-3.52,3.882v7.396c0,1.242,0.359,3.002,0.7,3.542c0.54,0.52,1.42,1.061,2.479,1.061h0.18l-0.18,4.4H0L0.34,118.962"/>
<path fill="none" stroke="#0091FF" stroke-width="0.02" stroke-linecap="round" stroke-linejoin="round" stroke-miterlimit="10" d="
	M0.34,118.962c2.66-0.18,3.54-1.238,3.54-4.062v-29.1c-0.18-3.158-0.72-3.698-3.7-4.038l0.52-4.238h15.52l-0.18,4.238h-0.18
	c-1.94,0-3,1.582-3,4.4v10.938L23.8,85.104c1.04-1.063,1.22-1.404,1.22-1.943c0-0.697-0.88-1.398-2.28-1.398h-0.36l0.36-4.238h14.28
	l-0.36,4.4L22.2,96.382l12.88,20.278c1.04,1.582,1.94,2.122,3.7,2.302l-0.36,4.4H28.38l-12-20.28l-3.52,3.882v7.396
	c0,1.242,0.359,3.002,0.7,3.542c0.54,0.52,1.42,1.061,2.479,1.061h0.18l-0.18,4.4H0L0.34,118.962z"/>
<path fill="#0091FF" d="M44.94,118.602c2.64-0.18,3.359-1.062,3.359-4.76V85.645c0-3.002-0.72-3.882-3.54-4.06l0.181-4.243h13.74
	c0.18,0.361,0.36,0.88,0.54,1.242c0.18,0.362,0.18,0.518,0.36,0.88c0.16,0.362,0.7,1.058,1.22,2.3l12.88,22.378
	c0.7,1.42,1.4,2.64,1.939,3.704c0.34,1.058,0.701,1.76,1.22,3.536c-0.339-3.18-0.52-4.416-0.7-6.7c-0.18-1.598-0.18-2.996-0.18-4.06
	v-14.28c0-2.818-1.24-4.238-3.7-4.578l0.18-4.421h15.5l-0.16,4.421c-2.82,0.518-3.36,1.22-3.36,4.4v32.439c0,2.12,0,2.82,0.54,4.4
	H75.78l-17.8-29.438c-0.52-0.88-1.22-2.462-1.94-4.222c0.36,3.342,0.54,6.338,0.54,7.401v16.396c0,4.06,1.06,5.462,4.04,5.462h0.18
	l-0.18,4.4H44.76L44.94,118.602"/>
<path fill="none" stroke="#0091FF" stroke-width="0.02" stroke-linecap="round" stroke-linejoin="round" stroke-miterlimit="10" d="
	M44.94,118.602c2.64-0.18,3.359-1.062,3.359-4.76V85.645c0-3.002-0.72-3.882-3.54-4.06l0.181-4.243h13.74
	c0.18,0.361,0.36,0.88,0.54,1.242c0.18,0.362,0.18,0.518,0.36,0.88c0.16,0.362,0.7,1.058,1.22,2.3l12.88,22.378
	c0.7,1.42,1.4,2.64,1.939,3.704c0.34,1.058,0.701,1.76,1.22,3.536c-0.339-3.18-0.52-4.416-0.7-6.7c-0.18-1.598-0.18-2.996-0.18-4.06
	v-14.28c0-2.818-1.24-4.238-3.7-4.578l0.18-4.421h15.5l-0.16,4.421c-2.82,0.518-3.36,1.22-3.36,4.4v32.439c0,2.12,0,2.82,0.54,4.4
	H75.78l-17.8-29.438c-0.52-0.88-1.22-2.462-1.94-4.222c0.36,3.342,0.54,6.338,0.54,7.401v16.396c0,4.06,1.06,5.462,4.04,5.462h0.18
	l-0.18,4.4H44.76L44.94,118.602z"/>
<path fill="#0091FF" d="M107.16,95.324c1.42,0.356,2.12,0.356,3.18,0.356c3,0,4.92-0.518,6.52-2.116
	c1.94-1.582,2.64-3.164,2.64-4.762c0-3.002-3.18-5.28-7.58-5.28c-2.3,0-3.7,0.518-4.24,1.398c-0.52,0.54-0.52,1.063-0.52,2.483
	V95.324 M107.16,102.904v9.54c0,2.457,0.18,2.98,1.24,3.698c1.06,0.518,2.28,0.88,4.76,0.88c6.52,0,9.34-2.122,9.34-7.24
	c0-3.158-1.24-5.102-3.88-6.16c-1.58-0.718-3.36-0.88-6.7-0.88C110.16,102.742,109.28,102.742,107.16,102.904z M94.64,118.782
	c2.82-0.18,3.54-1.058,3.54-4.578v-27.68c0-2.662-0.18-2.824-0.88-3.704c-0.72-0.54-1.42-1.058-2.82-1.058L95,77.525
	c3.34,0.178,4.58,0.178,6.88,0.178c1.76,0,3.52,0,4.92-0.178l7.42-0.184h1.04c8.46,0,13.22,3.881,13.22,11.121
	c0,2.1-0.34,4.039-1.22,5.458c-0.36,0.523-0.72,1.063-1.061,1.582c-1.24,1.242-2.12,1.76-4.239,2.64c2.66,0.54,3.7,0.902,5.3,2.122
	c3.16,2.116,4.759,5.296,4.759,9.518c0,3.542-1.239,6.878-3.54,9.34c-2.98,3.18-6.34,4.24-14.1,4.24l-10.92-0.18H101.7
	c-1.759,0-3.7,0-7.22,0L94.64,118.782z"/>
<path fill="none" stroke="#0091FF" stroke-width="0.02" stroke-linecap="round" stroke-linejoin="round" stroke-miterlimit="10" d="
	M107.16,95.324c1.42,0.356,2.12,0.356,3.18,0.356c3,0,4.92-0.518,6.52-2.116c1.94-1.582,2.64-3.164,2.64-4.762
	c0-3.002-3.18-5.28-7.58-5.28c-2.3,0-3.7,0.518-4.24,1.398c-0.52,0.54-0.52,1.063-0.52,2.483V95.324z M107.16,102.904v9.54
	c0,2.457,0.18,2.98,1.24,3.698c1.06,0.518,2.28,0.88,4.76,0.88c6.52,0,9.34-2.122,9.34-7.24c0-3.158-1.24-5.102-3.88-6.16
	c-1.58-0.718-3.36-0.88-6.7-0.88C110.16,102.742,109.28,102.742,107.16,102.904z M94.64,118.782c2.82-0.18,3.54-1.058,3.54-4.578
	v-27.68c0-2.662-0.18-2.824-0.88-3.704c-0.72-0.54-1.42-1.058-2.82-1.058L95,77.525c3.34,0.178,4.58,0.178,6.88,0.178
	c1.76,0,3.52,0,4.92-0.178l7.42-0.184h1.04c8.46,0,13.22,3.881,13.22,11.121c0,2.1-0.34,4.039-1.22,5.458
	c-0.36,0.523-0.72,1.063-1.061,1.582c-1.24,1.242-2.12,1.76-4.239,2.64c2.66,0.54,3.7,0.902,5.3,2.122
	c3.16,2.116,4.759,5.296,4.759,9.518c0,3.542-1.239,6.878-3.54,9.34c-2.98,3.18-6.34,4.24-14.1,4.24l-10.92-0.18H101.7
	c-1.759,0-3.7,0-7.22,0L94.64,118.782z"/>
<path fill="#0091FF" d="M167.44,81.925c0,2.656,0.18,4.06,0.36,7.758h-6.18c-0.18-1.398-0.34-2.1-0.88-3.001
	c-0.88-1.76-4.041-3.336-6.88-3.336c-3.86,0-6.68,2.3-6.68,5.458c0,1.058,0.34,2.3,0.7,3.001c0.52,0.54,1.4,1.236,2.459,1.76
	c1.42,0.718,4.24,1.598,6.88,2.478c1.06,0.34,1.76,0.702,1.939,0.702c1.581,0.519,3.18,1.236,4.4,2.117
	c3.7,2.461,5.3,5.819,5.3,10.743c0,9.178-5.64,14.298-15.7,14.298c-1.94,0-5.82-0.18-8.64-0.54l-3.16-0.36
	c-0.541-0.161-1.601-0.161-3.18-0.34v-6.358c0-2.1-0.18-3.342-0.34-6.522h5.979c0,5.118,2.64,7.418,8.28,7.418
	c4.76,0,7.58-2.116,7.58-5.82c0-2.996-1.4-4.416-5.64-5.998c-5.82-2.122-8.1-3.18-10.74-4.762c-3.88-2.478-6-5.636-6-10.22
	c0-8.12,6-13.578,14.8-13.578c1.6,0,3.7,0.178,5.48,0.34l5.1,0.718c1.24,0.184,2.301,0.34,4.94,0.524
	C167.44,80.165,167.44,80.883,167.44,81.925"/>
<path fill="none" stroke="#0091FF" stroke-width="0.02" stroke-linecap="round" stroke-linejoin="round" stroke-miterlimit="10" d="
	M167.44,81.925c0,2.656,0.18,4.06,0.36,7.758h-6.18c-0.18-1.398-0.34-2.1-0.88-3.001c-0.88-1.76-4.041-3.336-6.88-3.336
	c-3.86,0-6.68,2.3-6.68,5.458c0,1.058,0.34,2.3,0.7,3.001c0.52,0.54,1.4,1.236,2.459,1.76c1.42,0.718,4.24,1.598,6.88,2.478
	c1.06,0.34,1.76,0.702,1.939,0.702c1.581,0.519,3.18,1.236,4.4,2.117c3.7,2.461,5.3,5.819,5.3,10.743
	c0,9.178-5.64,14.298-15.7,14.298c-1.94,0-5.82-0.18-8.64-0.54l-3.16-0.36c-0.541-0.161-1.601-0.161-3.18-0.34v-6.358
	c0-2.1-0.18-3.342-0.34-6.522h5.979c0,5.118,2.64,7.418,8.28,7.418c4.76,0,7.58-2.116,7.58-5.82c0-2.996-1.4-4.416-5.64-5.998
	c-5.82-2.122-8.1-3.18-10.74-4.762c-3.88-2.478-6-5.636-6-10.22c0-8.12,6-13.578,14.8-13.578c1.6,0,3.7,0.178,5.48,0.34l5.1,0.718
	c1.24,0.184,2.301,0.34,4.94,0.524C167.44,80.165,167.44,80.883,167.44,81.925z"/>
<path fill="#0091FF" d="M187.88,95.324c1.24,0.178,1.94,0.356,3,0.356c3,0,4.94-0.696,6.52-2.116
	c1.939-1.76,2.819-3.164,2.819-4.762c0-3.158-3.159-5.28-7.739-5.28c-2.3,0-3.54,0.34-4.24,1.398c-0.36,0.54-0.36,0.88-0.36,2.483
	V95.324 M187.88,102.904v9.356c0,2.462,0.18,3.164,1.06,3.704c1.06,0.696,2.479,1.058,4.76,1.058c6.7,0,9.52-2.3,9.52-7.24
	c0-3.342-1.24-5.28-4.061-6.338c-1.399-0.54-3.159-0.702-6.52-0.702C190.88,102.742,190,102.742,187.88,102.904z M175.38,118.782
	c2.64-0.36,3.34-1.242,3.34-4.762V86.524c0-2.662,0-3.001-0.7-3.704c-0.88-0.718-1.58-1.058-2.82-1.058l0.339-4.421
	c3.36,0.184,4.76,0.184,7.06,0.184c1.76,0,3.34,0,4.94,0l7.399-0.362H196c8.459,0,13.22,4.06,13.22,11.299
	c0,1.938-0.54,3.882-1.42,5.28c-0.181,0.702-0.7,1.242-1.061,1.582c-1.04,1.42-1.939,1.938-4.04,2.818
	c2.641,0.362,3.7,0.902,5.28,1.938c3.18,2.122,4.76,5.48,4.76,9.523c0,3.72-1.399,7.056-3.699,9.518c-2.82,3-6.341,4.06-13.92,4.06
	l-11.1-0.18h-1.78c-1.76,0-3.52,0-7.04,0.18L175.38,118.782z"/>
<path fill="none" stroke="#0091FF" stroke-width="0.02" stroke-linecap="round" stroke-linejoin="round" stroke-miterlimit="10" d="
	M187.88,95.324c1.24,0.178,1.94,0.356,3,0.356c3,0,4.94-0.696,6.52-2.116c1.939-1.76,2.819-3.164,2.819-4.762
	c0-3.158-3.159-5.28-7.739-5.28c-2.3,0-3.54,0.34-4.24,1.398c-0.36,0.54-0.36,0.88-0.36,2.483V95.324z M187.88,102.904v9.356
	c0,2.462,0.18,3.164,1.06,3.704c1.06,0.696,2.479,1.058,4.76,1.058c6.7,0,9.52-2.3,9.52-7.24c0-3.342-1.24-5.28-4.061-6.338
	c-1.399-0.54-3.159-0.702-6.52-0.702C190.88,102.742,190,102.742,187.88,102.904z M175.38,118.782c2.64-0.36,3.34-1.242,3.34-4.762
	V86.524c0-2.662,0-3.001-0.7-3.704c-0.88-0.718-1.58-1.058-2.82-1.058l0.339-4.421c3.36,0.184,4.76,0.184,7.06,0.184
	c1.76,0,3.34,0,4.94,0l7.399-0.362H196c8.459,0,13.22,4.06,13.22,11.299c0,1.938-0.54,3.882-1.42,5.28
	c-0.181,0.702-0.7,1.242-1.061,1.582c-1.04,1.42-1.939,1.938-4.04,2.818c2.641,0.362,3.7,0.902,5.28,1.938
	c3.18,2.122,4.76,5.48,4.76,9.523c0,3.72-1.399,7.056-3.699,9.518c-2.82,3-6.341,4.06-13.92,4.06l-11.1-0.18h-1.78
	c-1.76,0-3.52,0-7.04,0.18L175.38,118.782z"/>
<path fill="#0091FF" d="M82.84,62.721c3.339,0,3.339,0,6.7,0c0.7,0.523-6.36-7.758-7.4-12.881c-2.3-9.34,5.98-8.816,5.8-7.758
	c-1.04,1.76-1.92,4.238-1.04,7.062c0.88,2.64,8.46,13.578,8.46,13.578h6.681c0,0-5.801-8.12-8.46-12.881
	c-3.34-9.518,9.88-9.34,9.88-4.94c0,2.483,0,17.821,0,17.821h5.64c0,0,0-13.939,0-18c0.18-4.222,12.86-4.762,9.88,5.118
	c-2.3,4.762-8.3,12.881-8.3,12.881h6.52c0,0,6.18-8.298,8.46-13.578c1.06-3.52-0.34-5.301-1.04-7.062
	c-0.36-0.518,7.92-2.122,5.979,7.758c-1.58,4.762-4.4,8.822-7.759,12.881c3.7,0,5.3,0,6.7,0c14.46-18.162,3.18-32.279-9.52-25.579
	c-5.64-4.222-13.74,0.54-13.74,0.54s-7.94-4.578-13.74-0.54C83.9,31.344,66.62,39.96,82.84,62.721"/>
<path fill="none" stroke="#0091FF" stroke-width="0.02" stroke-linecap="round" stroke-linejoin="round" stroke-miterlimit="10" d="
	M82.84,62.721c3.339,0,3.339,0,6.7,0c0.7,0.523-6.36-7.758-7.4-12.881c-2.3-9.34,5.98-8.816,5.8-7.758
	c-1.04,1.76-1.92,4.238-1.04,7.062c0.88,2.64,8.46,13.578,8.46,13.578h6.681c0,0-5.801-8.12-8.46-12.881
	c-3.34-9.518,9.88-9.34,9.88-4.94c0,2.483,0,17.821,0,17.821h5.64c0,0,0-13.939,0-18c0.18-4.222,12.86-4.762,9.88,5.118
	c-2.3,4.762-8.3,12.881-8.3,12.881h6.52c0,0,6.18-8.298,8.46-13.578c1.06-3.52-0.34-5.301-1.04-7.062
	c-0.36-0.518,7.92-2.122,5.979,7.758c-1.58,4.762-4.4,8.822-7.759,12.881c3.7,0,5.3,0,6.7,0c14.46-18.162,3.18-32.279-9.52-25.579
	c-5.64-4.222-13.74,0.54-13.74,0.54s-7.94-4.578-13.74-0.54C83.9,31.344,66.62,39.96,82.84,62.721z"/>
<rect x="82.84" y="65.003" fill="#0091FF" width="46.7" height="5.46"/>
<rect x="82.84" y="65.003" fill="none" stroke="#0091FF" stroke-width="0.02" stroke-linecap="round" stroke-linejoin="round" stroke-miterlimit="10" width="46.7" height="5.46"/>
<path fill="#0091FF" d="M106.28,35.382c2.64,0,4.76-2.278,4.76-4.94c0-2.64-2.12-4.762-4.76-4.762c-2.64,0-4.939,2.122-4.939,4.762
	C101.34,33.104,103.64,35.382,106.28,35.382"/>
<path fill="none" stroke="#0091FF" stroke-width="0.02" stroke-linecap="round" stroke-linejoin="round" stroke-miterlimit="10" d="
	M106.28,35.382c2.64,0,4.76-2.278,4.76-4.94c0-2.64-2.12-4.762-4.76-4.762c-2.64,0-4.939,2.122-4.939,4.762
	C101.34,33.104,103.64,35.382,106.28,35.382z"/>
<path fill="#0091FF" d="M376.3,280.802c-2.461,0-4.581,1.939-4.581,4.94c0,3,2.12,4.939,4.581,4.939c2.479,0,4.6-1.939,4.6-4.939
	C380.9,282.742,378.78,280.802,376.3,280.802 M376.3,292.083c-3.341,0-6.34-2.28-6.34-6.34c0-4.061,2.999-6.341,6.34-6.341
	c3.359,0,6.54,2.28,6.54,6.341C382.84,289.802,379.66,292.083,376.3,292.083z M376.661,285.203c0.539,0,0.88-0.16,0.88-1.041
	c0-0.72-0.7-0.72-1.24-0.72h-1.041v1.761H376.661z M375.259,289.262h-1.42v-7.04h2.461c1.779,0,2.819,0.52,2.819,2.1
	c0,1.24-0.7,1.78-1.579,1.78l1.76,3.16h-1.76l-1.581-3h-0.7V289.262z"/>
<path fill="none" stroke="#0091FF" stroke-width="0.02" stroke-linecap="round" stroke-linejoin="round" stroke-miterlimit="10" d="
	M376.3,280.802c-2.461,0-4.581,1.939-4.581,4.94c0,3,2.12,4.939,4.581,4.939c2.479,0,4.6-1.939,4.6-4.939
	C380.9,282.742,378.78,280.802,376.3,280.802z M376.3,292.083c-3.341,0-6.34-2.28-6.34-6.34c0-4.061,2.999-6.341,6.34-6.341
	c3.359,0,6.54,2.28,6.54,6.341C382.84,289.802,379.66,292.083,376.3,292.083z M376.661,285.203c0.539,0,0.88-0.16,0.88-1.041
	c0-0.72-0.7-0.72-1.24-0.72h-1.041v1.761H376.661z M375.259,289.262h-1.42v-7.04h2.461c1.779,0,2.819,0.52,2.819,2.1
	c0,1.24-0.7,1.78-1.579,1.78l1.76,3.16h-1.76l-1.581-3h-0.7V289.262z"/>
<path fill="#FF1721" d="M152.46,205.342c2.82,0.18,5.82,0.7,7.22,1.58c1.24,0.9,4.24,5.3,4.24,5.3s0.7-0.18,0.34-3.52
	c-0.34-2.12-1.581-6-2.64-6.54C160.56,201.462,154.4,204.282,152.46,205.342 M128.48,226.862c-1.22,3.16,3.88,0.7,3.72,3.52
	c0,2.64-10.24,9.52-10.58,13.399c-0.54,6.34-7.4,12.7-5.3,17.8c3.359-0.7,7.4,0.18,9.18,1.94c2.1,2.12,5.64,8.28,7.22,10.4
	c1.061,1.42,2.46,2.48,4.581,1.6c4.24-1.939,6,2.46,8.64,4.399c2.28,1.761,2.28-0.52,3.88-0.52c3.16,0,3.88-2.84,6.88-6.18
	c3.7-4.061,8.62-7.94,9.34-10.94c0.34-2.1-1.24-4.22-2.3-5.459c-3.34-4.06-4.94-3.34-6-4.58c-1.76-2.12-0.52-4.06-2.1-6.34
	c-6.18-11.46-11.82-16.22-15.52-18.34C137.84,226.142,130.26,222.102,128.48,226.862z M146.64,222.442
	c-2.46-0.7-5.46-0.52-7.04-0.18c3.7,1.42,11.44,7.76,14.8,13.76c0,0,0.7-0.181,0.88-1.76c0-0.541-0.359-1.76-1.24-3.88
	C152.28,228.083,148.76,224.042,146.64,222.442z M138.54,216.802c-1.24,0.7-1.42,2.3-1.42,2.3c2.12-0.72,6.7-1.06,10.22-0.359
	c2.82,1.239,6.88,5.299,9,8.279c0.88,1.78,1.58,3.36,2.28,5.3c0.72,0,2.479-1.58,2.3-3.359c-0.18-1.58-2.82-6.7-4.22-8.64
	c-1.06-1.22-6.88-4.76-8.64-5.46C145.94,214.522,139.6,216.102,138.54,216.802z M155.98,209.042c-3.7-0.52-8.8-1.58-10.4-1.22
	c-1.76,0.88-3,2.98-4.04,4.58c2.1-0.72,5.64-1.76,7.74-1.06c3.54,1.58,7.94,4.4,9.879,6.16c1.24,2.12,3.18,5.3,3.34,7.06
	c0.72-0.36,1.6-1.061,1.76-2.46c0.18-1.24-1.041-4.94-1.92-6.54C161.44,213.982,158.28,209.922,155.98,209.042z M373.32,274.642
	c-1.601,1.22-3.18,2.46-4.76,3.7c-12.52,8.8-26.62,15.68-36.841,28.56c-2.819,3.34-15.339-6.699-15.339-6.699
	c-13.221,5.64-24.86,11.1-40.721,14.46c-5.46,4.579-10.4,5.64-15.859,3.16c-4.581-2.28-8.64-1.761-14.62-2.82
	c-22.04-4.061-43.2-8.46-62.94-16.561c0,0-8.62-2.479-18.14-6c-7.76,1.24-13.06-1.42-15.34-4.06c-4.58,1.42-7.399-3.7-9.34-6.7
	c-2.82-0.7-6.7,2.12-8.64-1.061c-3.181,3.54-7.76,2.12-10.76,1.061c-2.28-0.7-4.22-1.761-5.8-3.34c-2.3-2.12-3.88-4.76-4.6-7.761
	c-1.22-4.579,2.82-4.42,1.42-10.06c-1.06-4.76,5.82-12.52,6.16-16.4c0.18-2.28,0.88-3.859,1.939-5.28
	c1.24-1.581,2.66-2.82,3.701-4.06c-0.88-4.76,0.54-9.52,4.42-12.34c1.4-1.4,3.879-2.12,5.82-2.28c0.52-4.06,2.82-6.36,4.22-6.54
	c0.7-1.76,4.94-8.1,6.879-9.16c0.88-0.36,2.46-0.18,3.52,0c1.24-1.06,7.94-4.4,10.04-5.12c1.601-0.52,3.54-1.04,4.76-1.04
	c1.24,0,1.6,0.52,2.3,1.22c0.7,0.54,1.24,2.819,1.24,2.819c6.52-10.399,19.74-27.859,31.02-42.48
	c10.92-14.1,50.4-67.177,50.4-67.177c13.22-18.34,41.779-51.483,61.52-81.101c-3.52-3.342-11.82-7.92-16.399-9.863
	c10.22-5.82,33.839,3.52,31.899,22.021c-14.8,21.698-54.64,68.759-54.64,68.759c-19.74,22.583-41.24,44.441-60.28,67.361
	c-5.64,6.7-11.1,13.4-16.2,20.44c-7.06,9.36-14.1,19.04-20.28,29.1c1.94,1.94,4.94,5.82,5.46,9.7c1.24,6.34-1.06,13.04-2.1,19.74
	c-0.36,1.06-0.36,2.12-0.541,3.18c1.76,3.7,4.76,4.4,7.4,8.46c3.7,5.82,8.12,12.16,10.4,18.5c0.88,1.78-1.22,0.72-2.281,0.36
	c-8.12-3.521-16.919-5.28-21.16-1.94c-2.28,1.76-9.86,7.24-9.7,10.4c0,0.18,0,0.359,0,0.54c0.54,6.52,9.18,9.16,14.28,10.22
	c12.88,2.819,21.5,6.88,32.44,9.7c7.4,2.12,18.5,3.16,23.08,1.76c4.42-1.24,22.4,6,36.14,0.7c3.881-1.58,7.761-2.82,11.98-3.34
	c-5.28,5.64-12.68,8.64-20.8,9.699c1.24,0.341,2.12,0.521,3.18,0.881c11.8,4.22,19.381-6.181,28.56-12.88
	c4.581-3.521,11.801-7.4,18.681-8.82l-0.88-0.88c-3.18-2.28-6.18-4.761-9.181-7.04c-6.159-4.76-12.319-9-19.56-10.94
	c-1.4-0.36,0.359-3.52,3-3.699c5.64-0.36,11.64,3.879,17.1,7.76c3,2.12,6,4.399,8.98,6.88c7.76,5.979,15.52,12.859,22.04,19.74
	l0.359-0.181c8.62-8.46,18.32-14.46,28.2-19.56c0.181-0.181,0.34-0.181,0.521-0.181c-3-1.06-9.521-1.42-13.92-4.06
	c-4.58-2.64-2.641-5.28-16.561-6.521c10.38-6.52,16.92-2.459,35.24-9.339c9.34-3.54,19.56-9.18,23.979-19.4c0-0.18,0-0.36,0.16-0.36
	c0.181-0.7-0.34-1.4-0.34-1.4c-0.359,0.7-0.88,1.24-1.42,1.76c-6.52,7.06-16.04,13.92-26.26,16.22c-17.1,3.88-23.26-2.3-36.84-3
	c-3.341-0.18-6.86,0-9.681-1.4c7.58-3.36,16.561,0,33.12-2.3c6.7-1.061,14.46-3.34,20.64-6.34c1.761-0.88,3.701-1.94,5.641-3.18
	c2.819-1.94,5.28-4.06,6.521-5.28c1.939-1.94,3.699-3.54,3.52-5.82l-0.7,0.7c-3.88,4.58-8.82,7.94-13.76,10.4
	c-8.28,3.7-16.74,5.12-21.86,6c-16.04,2.82-28.899-1.76-42.819,4.22c-1.24,0.359-2.12,0.72-3.36,0.72l1.42-1.24
	c6.16-5.64,13.92-7.06,22.04-7.24c10.74-0.34,19.2-0.88,26.779-2.46c8.121-1.76,15.161-4.76,22.74-9.88
	c5.82-4.22,12.7-8.46,12.7-16.74c0-3.7-1.78-6.52-4.06-8.28c-13.04-9.36-35.44-6.7-49.18,2.28c-3.7,2.48-8.101,6-10.4,9.34
	l-1.94-1.4c3.881-5.46,10.22-10.94,16.58-14.82c-9.18,1.94-39.14,25.58-55.18,39.5c-1.06,0.88-2.12,1.939-3.18,2.819
	c-0.88-0.699-1.92-1.759-2.98-2.819c-4.06-4.24-8.64-10.76-9.88-16.04c-1.58-6.7,2.82-28.38,5.82-39.32
	c1.06-0.52,3.699-0.52,4.399,0.18c-0.34,6.16-3.159,11.64,0.721,17.1c2.979,4.58-1.421,14.459-1.601,20.8
	c4.06,3,13.22,0.36,16.921-1.4c11.999-5.82,18.859-15.7,24.159-23.64c4.22-6.52,14.8-1.94,22.72-2.459c2.3-0.18,6.54-1.42,7.24-2.82
	c-4.24-2.64-1.76-7.06-5.46-9c-3.54-1.759-2.66-8.46-3.18-10.579c-0.88-3.701-3.341-7.92-6.521-11.801
	c-5.46-6.7-13.399-12.88-21.68-16.04c-5.28-1.94-7.4-9-6.34-13.4c16.92,2.459,24.14,4.76,41.239-1.061
	c14.461-4.759,25.381-10.94,36.66-17.819c-11.64-0.88-29.08-2.98-29.08-2.98c-7.239-10.938-18.52-26.637-28.199-31.221
	c-8.28-3.698-20.101-2.278-29.801-1.577l4.42-5.124c6.86-0.88,18.32-1.76,27.141,1.944c10.04,4.238,23.439,21.859,29.78,31.215
	c10.399,1.582,19.739,1.582,29.26,3.52c1.239,0.362,2.479,1.064,2.82,2.64c0.18,1.943-1.761,3.52-3.521,4.94
	c-5.46,3.882-14.8,9.342-24.319,13.582c3.52,7.76-5.641,7.04-1.94,15.5c2.279,5.48,10.4,9.88,8.979,15.88
	c-0.18,0.341-0.34,0.88-0.699,1.4c-1.581,3-4.581,0.54-6.34,2.48c0.339,2.459,1.759,5.82-1.24,7.399c0.88,1.24,1.24,2.82,0.699,4.24
	c-1.76,3.7-4.22,2.98-5.1,8.64l0.18,0.52c7.22,1.58,16.561-0.52,22.561,3.52c8.46,5.479,21.68,22.74,23.26,34.04
	c0.7,6.34,0.7,11.8,0,16.74C396.22,258.062,382.12,267.582,373.32,274.642z"/>
<path fill="none" stroke="#FF1721" stroke-width="0.02" stroke-linecap="round" stroke-linejoin="round" stroke-miterlimit="10" d="
	M152.46,205.342c2.82,0.18,5.82,0.7,7.22,1.58c1.24,0.9,4.24,5.3,4.24,5.3s0.7-0.18,0.34-3.52c-0.34-2.12-1.581-6-2.64-6.54
	C160.56,201.462,154.4,204.282,152.46,205.342z M128.48,226.862c-1.22,3.16,3.88,0.7,3.72,3.52c0,2.64-10.24,9.52-10.58,13.399
	c-0.54,6.34-7.4,12.7-5.3,17.8c3.359-0.7,7.4,0.18,9.18,1.94c2.1,2.12,5.64,8.28,7.22,10.4c1.061,1.42,2.46,2.48,4.581,1.6
	c4.24-1.939,6,2.46,8.64,4.399c2.28,1.761,2.28-0.52,3.88-0.52c3.16,0,3.88-2.84,6.88-6.18c3.7-4.061,8.62-7.94,9.34-10.94
	c0.34-2.1-1.24-4.22-2.3-5.459c-3.34-4.06-4.94-3.34-6-4.58c-1.76-2.12-0.52-4.06-2.1-6.34c-6.18-11.46-11.82-16.22-15.52-18.34
	C137.84,226.142,130.26,222.102,128.48,226.862z M146.64,222.442c-2.46-0.7-5.46-0.52-7.04-0.18c3.7,1.42,11.44,7.76,14.8,13.76
	c0,0,0.7-0.181,0.88-1.76c0-0.541-0.359-1.76-1.24-3.88C152.28,228.083,148.76,224.042,146.64,222.442z M138.54,216.802
	c-1.24,0.7-1.42,2.3-1.42,2.3c2.12-0.72,6.7-1.06,10.22-0.359c2.82,1.239,6.88,5.299,9,8.279c0.88,1.78,1.58,3.36,2.28,5.3
	c0.72,0,2.479-1.58,2.3-3.359c-0.18-1.58-2.82-6.7-4.22-8.64c-1.06-1.22-6.88-4.76-8.64-5.46
	C145.94,214.522,139.6,216.102,138.54,216.802z M155.98,209.042c-3.7-0.52-8.8-1.58-10.4-1.22c-1.76,0.88-3,2.98-4.04,4.58
	c2.1-0.72,5.64-1.76,7.74-1.06c3.54,1.58,7.94,4.4,9.879,6.16c1.24,2.12,3.18,5.3,3.34,7.06c0.72-0.36,1.6-1.061,1.76-2.46
	c0.18-1.24-1.041-4.94-1.92-6.54C161.44,213.982,158.28,209.922,155.98,209.042z M373.32,274.642c-1.601,1.22-3.18,2.46-4.76,3.7
	c-12.52,8.8-26.62,15.68-36.841,28.56c-2.819,3.34-15.339-6.699-15.339-6.699c-13.221,5.64-24.86,11.1-40.721,14.46
	c-5.46,4.579-10.4,5.64-15.859,3.16c-4.581-2.28-8.64-1.761-14.62-2.82c-22.04-4.061-43.2-8.46-62.94-16.561c0,0-8.62-2.479-18.14-6
	c-7.76,1.24-13.06-1.42-15.34-4.06c-4.58,1.42-7.399-3.7-9.34-6.7c-2.82-0.7-6.7,2.12-8.64-1.061c-3.181,3.54-7.76,2.12-10.76,1.061
	c-2.28-0.7-4.22-1.761-5.8-3.34c-2.3-2.12-3.88-4.76-4.6-7.761c-1.22-4.579,2.82-4.42,1.42-10.06c-1.06-4.76,5.82-12.52,6.16-16.4
	c0.18-2.28,0.88-3.859,1.939-5.28c1.24-1.581,2.66-2.82,3.701-4.06c-0.88-4.76,0.54-9.52,4.42-12.34c1.4-1.4,3.879-2.12,5.82-2.28
	c0.52-4.06,2.82-6.36,4.22-6.54c0.7-1.76,4.94-8.1,6.879-9.16c0.88-0.36,2.46-0.18,3.52,0c1.24-1.06,7.94-4.4,10.04-5.12
	c1.601-0.52,3.54-1.04,4.76-1.04c1.24,0,1.6,0.52,2.3,1.22c0.7,0.54,1.24,2.819,1.24,2.819c6.52-10.399,19.74-27.859,31.02-42.48
	c10.92-14.1,50.4-67.177,50.4-67.177c13.22-18.34,41.779-51.483,61.52-81.101c-3.52-3.342-11.82-7.92-16.399-9.863
	c10.22-5.82,33.839,3.52,31.899,22.021c-14.8,21.698-54.64,68.759-54.64,68.759c-19.74,22.583-41.24,44.441-60.28,67.361
	c-5.64,6.7-11.1,13.4-16.2,20.44c-7.06,9.36-14.1,19.04-20.28,29.1c1.94,1.94,4.94,5.82,5.46,9.7c1.24,6.34-1.06,13.04-2.1,19.74
	c-0.36,1.06-0.36,2.12-0.541,3.18c1.76,3.7,4.76,4.4,7.4,8.46c3.7,5.82,8.12,12.16,10.4,18.5c0.88,1.78-1.22,0.72-2.281,0.36
	c-8.12-3.521-16.919-5.28-21.16-1.94c-2.28,1.76-9.86,7.24-9.7,10.4c0,0.18,0,0.359,0,0.54c0.54,6.52,9.18,9.16,14.28,10.22
	c12.88,2.819,21.5,6.88,32.44,9.7c7.4,2.12,18.5,3.16,23.08,1.76c4.42-1.24,22.4,6,36.14,0.7c3.881-1.58,7.761-2.82,11.98-3.34
	c-5.28,5.64-12.68,8.64-20.8,9.699c1.24,0.341,2.12,0.521,3.18,0.881c11.8,4.22,19.381-6.181,28.56-12.88
	c4.581-3.521,11.801-7.4,18.681-8.82l-0.88-0.88c-3.18-2.28-6.18-4.761-9.181-7.04c-6.159-4.76-12.319-9-19.56-10.94
	c-1.4-0.36,0.359-3.52,3-3.699c5.64-0.36,11.64,3.879,17.1,7.76c3,2.12,6,4.399,8.98,6.88c7.76,5.979,15.52,12.859,22.04,19.74
	l0.359-0.181c8.62-8.46,18.32-14.46,28.2-19.56c0.181-0.181,0.34-0.181,0.521-0.181c-3-1.06-9.521-1.42-13.92-4.06
	c-4.58-2.64-2.641-5.28-16.561-6.521c10.38-6.52,16.92-2.459,35.24-9.339c9.34-3.54,19.56-9.18,23.979-19.4c0-0.18,0-0.36,0.16-0.36
	c0.181-0.7-0.34-1.4-0.34-1.4c-0.359,0.7-0.88,1.24-1.42,1.76c-6.52,7.06-16.04,13.92-26.26,16.22c-17.1,3.88-23.26-2.3-36.84-3
	c-3.341-0.18-6.86,0-9.681-1.4c7.58-3.36,16.561,0,33.12-2.3c6.7-1.061,14.46-3.34,20.64-6.34c1.761-0.88,3.701-1.94,5.641-3.18
	c2.819-1.94,5.28-4.06,6.521-5.28c1.939-1.94,3.699-3.54,3.52-5.82l-0.7,0.7c-3.88,4.58-8.82,7.94-13.76,10.4
	c-8.28,3.7-16.74,5.12-21.86,6c-16.04,2.82-28.899-1.76-42.819,4.22c-1.24,0.359-2.12,0.72-3.36,0.72l1.42-1.24
	c6.16-5.64,13.92-7.06,22.04-7.24c10.74-0.34,19.2-0.88,26.779-2.46c8.121-1.76,15.161-4.76,22.74-9.88
	c5.82-4.22,12.7-8.46,12.7-16.74c0-3.7-1.78-6.52-4.06-8.28c-13.04-9.36-35.44-6.7-49.18,2.28c-3.7,2.48-8.101,6-10.4,9.34
	l-1.94-1.4c3.881-5.46,10.22-10.94,16.58-14.82c-9.18,1.94-39.14,25.58-55.18,39.5c-1.06,0.88-2.12,1.939-3.18,2.819
	c-0.88-0.699-1.92-1.759-2.98-2.819c-4.06-4.24-8.64-10.76-9.88-16.04c-1.58-6.7,2.82-28.38,5.82-39.32
	c1.06-0.52,3.699-0.52,4.399,0.18c-0.34,6.16-3.159,11.64,0.721,17.1c2.979,4.58-1.421,14.459-1.601,20.8
	c4.06,3,13.22,0.36,16.921-1.4c11.999-5.82,18.859-15.7,24.159-23.64c4.22-6.52,14.8-1.94,22.72-2.459c2.3-0.18,6.54-1.42,7.24-2.82
	c-4.24-2.64-1.76-7.06-5.46-9c-3.54-1.759-2.66-8.46-3.18-10.579c-0.88-3.701-3.341-7.92-6.521-11.801
	c-5.46-6.7-13.399-12.88-21.68-16.04c-5.28-1.94-7.4-9-6.34-13.4c16.92,2.459,24.14,4.76,41.239-1.061
	c14.461-4.759,25.381-10.94,36.66-17.819c-11.64-0.88-29.08-2.98-29.08-2.98c-7.239-10.938-18.52-26.637-28.199-31.221
	c-8.28-3.698-20.101-2.278-29.801-1.577l4.42-5.124c6.86-0.88,18.32-1.76,27.141,1.944c10.04,4.238,23.439,21.859,29.78,31.215
	c10.399,1.582,19.739,1.582,29.26,3.52c1.239,0.362,2.479,1.064,2.82,2.64c0.18,1.943-1.761,3.52-3.521,4.94
	c-5.46,3.882-14.8,9.342-24.319,13.582c3.52,7.76-5.641,7.04-1.94,15.5c2.279,5.48,10.4,9.88,8.979,15.88
	c-0.18,0.341-0.34,0.88-0.699,1.4c-1.581,3-4.581,0.54-6.34,2.48c0.339,2.459,1.759,5.82-1.24,7.399c0.88,1.24,1.24,2.82,0.699,4.24
	c-1.76,3.7-4.22,2.98-5.1,8.64l0.18,0.52c7.22,1.58,16.561-0.52,22.561,3.52c8.46,5.479,21.68,22.74,23.26,34.04
	c0.7,6.34,0.7,11.8,0,16.74C396.22,258.062,382.12,267.582,373.32,274.642z"/>
<text transform="matrix(1 0 0 1 195.2998 -37.2764)" font-family="'Helvetica'" font-size="11.29"> </text>
</svg>
