<?xml version="1.0" encoding="utf-8"?>
<!-- Generator: Adobe Illustrator 14.0.0, SVG Export Plug-In . SVG Version: 6.00 Build 43363)  -->
<!DOCTYPE svg PUBLIC "-//W3C//DTD SVG 1.1//EN" "http://www.w3.org/Graphics/SVG/1.1/DTD/svg11.dtd">
<svg version="1.1" id="Logo_Clubkit" xmlns="http://www.w3.org/2000/svg" xmlns:xlink="http://www.w3.org/1999/xlink" x="0px"
	 y="0px" width="396.85px" height="277.211px" viewBox="0 0 396.85 277.211" enable-background="new 0 0 396.85 277.211"
	 xml:space="preserve">
<g>
	<polygon fill="#59AE4B" points="102.094,0 0,61.485 0,167.882 300.963,277.211 396.85,170.97 396.85,80.023 	"/>
	<g>
		<polygon fill="#BBD376" points="4.527,64.043 4.527,164.709 65.08,186.678 65.08,158.348 81.828,192.797 129.997,210.3 
			90.011,142.396 139.162,106.345 79.157,87.488 65.08,109.118 65.08,83.072 		"/>
		<polygon fill="#BBD376" points="151.665,218.175 151.665,152.898 217.668,174.902 217.668,242.138 		"/>
		<polygon fill="#BBD376" points="151.665,141.198 151.665,110.241 218.333,131.163 218.333,163.063 		"/>
		<polygon fill="#BBD376" points="250.133,253.902 250.133,173.494 233.439,168.017 233.439,135.901 313.248,160.978 
			313.248,194.196 293.038,187.566 293.038,269.487 		"/>
	</g>
	<g>
		<polygon fill="#FFFFFF" points="151.665,110.241 241.791,42.618 264.94,48.903 202.206,97.834 217.708,102.501 279.707,52.913 
			304.159,59.552 218.333,131.163 		"/>
		<polygon fill="#FFFFFF" points="79.157,87.488 173.532,24.086 197.018,30.465 131.11,76.427 165.567,86.802 139.162,106.345 		"/>
		<polygon fill="#FFFFFF" points="4.527,64.043 102.772,4.876 160.229,20.475 138.087,34.919 102.775,25 56.366,53.921 
			92.742,64.875 65.08,83.072 		"/>
		<path fill="#FFFFFF" d="M380.087,95.396l-5.674-16.772l-56.179-15.251l-84.796,72.528l79.809,25.076l38.141-37.374l-18.676-5.474
			l5.933-5.619l18.094,5.605L380.087,95.396z M294.896,136.958l-16.768-5.129l15.884-14.276l16.536,4.923L294.896,136.958z
			 M318.317,95.703l14.847-13.343l15.954,4.433l-14.621,13.527L318.317,95.703z"/>
	</g>
	<polygon fill="#59AE4B" points="313.248,162.057 4.188,65.122 4.868,62.965 314.15,160.089 	"/>
</g>
</svg>
