<?xml version="1.0" encoding="utf-8"?>
<!-- Generator: Adobe Illustrator 14.0.0, SVG Export Plug-In . SVG Version: 6.00 Build 43363)  -->
<!DOCTYPE svg PUBLIC "-//W3C//DTD SVG 1.1//EN" "http://www.w3.org/Graphics/SVG/1.1/DTD/svg11.dtd">
<svg version="1.1" xmlns="http://www.w3.org/2000/svg" xmlns:xlink="http://www.w3.org/1999/xlink" x="0px" y="0px"
	 width="213.305px" height="76.531px" viewBox="0 0 213.305 76.531" enable-background="new 0 0 213.305 76.531"
	 xml:space="preserve">
<g id="Stramien">
	<g>
	</g>
	<g>
	</g>
</g>
<g id="Beeldmerk">
	<rect x="-17.142" y="-19.134" fill="none" width="255.118" height="114.804"/>
	<g>
		<path fill="#F20017" d="M72.106,46.985c0.223-1.473,0.338-2.988,0.338-4.523c0-0.156-0.007-0.312-0.009-0.467l-32.903-6.992
			l-7.755-1.646c1.043-1.022,2.137-1.983,3.288-2.877c6.01-4.705,13.434-7.684,21.536-8.188c-0.278-0.553-0.568-1.092-0.876-1.626
			c-10.627,0.193-20.642,2.857-29.513,7.444c-1.765,0.91-3.484,1.903-5.16,2.97c-3.779,2.405-7.308,5.174-10.519,8.269l13.996,3.755
			l9.888,2.647l35.225,9.442c0.731-1.583,1.326-3.232,1.78-4.939L36.02,40.769c0.196-0.447,0.407-0.887,0.628-1.32L72.106,46.985z
			 M65.33,30.975l0.542,1.558l-18.615-3.958c-1.912,1.028-3.668,2.303-5.24,3.765l30.36,8.137
			c-0.313-4.852-1.765-9.394-4.097-13.367c-2.752-1.029-5.768-1.599-8.896-1.599c-3.067,0-6.008,0.543-8.731,1.53L65.33,30.975z"/>
		<path fill="#0C2E82" d="M84.875,49.698c-0.277-5.385-2.232-10.322-5.347-14.313l-0.942,0.258c0.403,1.825,0.624,3.719,0.624,5.666
			c0,2.419-0.332,4.76-0.948,6.983c-0.329,1.194-0.739,2.346-1.226,3.465c-2.369,5.486-6.595,10-11.855,12.783
			c-0.435-0.309-0.819-0.681-1.143-1.103c1.93-2.042,3.607-4.369,4.938-6.89l-35.028-7.455L22.86,46.736L6.735,43.312
			c-1.002,1.137-1.973,2.313-2.903,3.516c-0.323,0.43-0.649,0.864-0.97,1.303C1.854,49.501,0.903,50.911,0,52.366l20.349,4.33
			l11.293,2.393c-0.135-1.094-0.218-2.204-0.25-3.312L20.95,52.979l-8.221-2.211c-0.203-0.708-0.387-1.43-0.537-2.166l9.355,1.995
			l12.421,2.633c0.099,1.15,0.273,2.277,0.519,3.38c2.545,11.397,12.723,19.923,24.897,19.923c13.148,0,23.972-9.943,25.368-22.713
			c0.101-0.914,0.156-1.849,0.156-2.796C84.909,50.583,84.897,50.139,84.875,49.698z"/>
	</g>
</g>
<g id="Woordmerk">
	<g>
		<path fill="#0C2E82" d="M97.872,12.76l-4.554-8.478v8.478h-2.034V0.754h2.395l4.193,7.813V0.754h2.034V12.76H97.872z"/>
		<path fill="#0C2E82" d="M103.92,9.232c0.108,1.386,0.738,2.105,1.71,2.105c1.008,0,1.818-0.468,2.358-0.81l0.684,1.296
			c-0.468,0.342-1.403,1.116-3.096,1.116c-2.017,0-3.708-1.08-3.708-4.374c0-2.97,1.458-4.446,3.527-4.446
			c2.305,0,3.421,1.638,3.421,5.112H103.92z M105.396,5.578c-0.972,0-1.403,0.81-1.476,2.394h2.826
			C106.746,6.586,106.368,5.578,105.396,5.578z"/>
		<path fill="#0C2E82" d="M115.888,12.76v-0.81c-0.359,0.396-1.044,0.99-2.178,0.99c-1.692,0-3.061-1.134-3.061-4.446
			c0-3.366,1.765-4.374,3.223-4.374c1.098,0,1.656,0.414,2.016,0.756V0.214h1.944V12.76H115.888z M115.888,6.37
			c-0.252-0.216-0.792-0.648-1.53-0.648c-0.899,0-1.674,0.576-1.674,2.754c0,2.376,0.685,2.861,1.494,2.861
			c0.756,0,1.351-0.521,1.71-0.846V6.37z"/>
		<path fill="#0C2E82" d="M121.81,9.232c0.107,1.386,0.738,2.105,1.71,2.105c1.008,0,1.818-0.468,2.358-0.81l0.684,1.296
			c-0.468,0.342-1.404,1.116-3.096,1.116c-2.017,0-3.708-1.08-3.708-4.374c0-2.97,1.458-4.446,3.527-4.446
			c2.305,0,3.421,1.638,3.421,5.112H121.81z M123.285,5.578c-0.972,0-1.403,0.81-1.476,2.394h2.826
			C124.636,6.586,124.258,5.578,123.285,5.578z"/>
		<path fill="#0C2E82" d="M130.63,7.271v5.49h-1.944V4.3h1.944v1.278c0.468-0.81,1.188-1.458,2.537-1.458v1.782
			C132.052,5.902,131.098,6.658,130.63,7.271z"/>
		<path fill="#0C2E82" d="M135.003,12.76V0.214h1.944V12.76H135.003z"/>
		<path fill="#0C2E82" d="M143.589,12.76v-0.792c-0.432,0.432-1.115,0.972-2.214,0.972c-1.26,0-2.556-0.594-2.556-2.521
			c0-2.124,1.565-2.826,3.456-2.826h1.313V7.18c0-0.972-0.359-1.368-1.26-1.368c-0.864,0-1.854,0.359-2.538,0.612l-0.378-1.404
			c0.774-0.36,1.891-0.9,3.294-0.9c1.998,0,2.826,1.062,2.826,2.88v5.76H143.589z M143.589,8.782h-1.151
			c-1.026,0-1.566,0.486-1.566,1.386c0,0.864,0.433,1.225,1.063,1.225c0.684,0,1.277-0.468,1.655-0.774V8.782z"/>
		<path fill="#0C2E82" d="M152.751,12.76V7.126c0-0.738-0.252-1.152-0.899-1.152c-0.685,0-1.458,0.54-1.854,0.864v5.922h-1.944V4.3
			h1.944v1.08c0.576-0.611,1.351-1.26,2.538-1.26c1.26,0,2.16,0.756,2.16,2.466v6.174H152.751z"/>
		<path fill="#0C2E82" d="M161.949,12.76v-0.81c-0.36,0.396-1.044,0.99-2.179,0.99c-1.691,0-3.06-1.134-3.06-4.446
			c0-3.366,1.764-4.374,3.222-4.374c1.099,0,1.656,0.414,2.017,0.756V0.214h1.943V12.76H161.949z M161.949,6.37
			c-0.252-0.216-0.792-0.648-1.53-0.648c-0.9,0-1.674,0.576-1.674,2.754c0,2.376,0.684,2.861,1.494,2.861
			c0.756,0,1.35-0.521,1.71-0.846V6.37z"/>
		<path fill="#0C2E82" d="M168.645,12.94c-1.332,0-2.43-0.54-3.006-0.882l0.486-1.422c0.684,0.324,1.602,0.702,2.321,0.702
			c0.738,0,1.134-0.288,1.134-0.899c0-0.504-0.306-0.738-0.81-0.918l-1.152-0.396c-0.828-0.288-1.817-0.846-1.817-2.376
			c0-2.016,1.494-2.628,2.97-2.628c1.242,0,2.142,0.486,2.628,0.72l-0.432,1.44c-0.559-0.234-1.314-0.558-2.088-0.558
			c-0.612,0-1.08,0.234-1.08,0.828c0,0.45,0.342,0.666,0.773,0.828l1.135,0.396c0.953,0.342,1.89,0.936,1.89,2.556
			C171.597,12.292,170.301,12.94,168.645,12.94z"/>
		<path fill="#0C2E82" d="M97.513,31.894V26.62h-4.194v5.274h-2.034V19.888h2.034v5.059h4.194v-5.059h2.033v12.006H97.513z"/>
		<path fill="#0C2E82" d="M106.135,31.894v-0.792c-0.433,0.432-1.116,0.972-2.214,0.972c-1.261,0-2.557-0.594-2.557-2.521
			c0-2.124,1.566-2.826,3.456-2.826h1.314v-0.414c0-0.972-0.36-1.368-1.261-1.368c-0.863,0-1.854,0.359-2.537,0.612l-0.379-1.404
			c0.774-0.36,1.891-0.9,3.295-0.9c1.998,0,2.825,1.062,2.825,2.88v5.76H106.135z M106.135,27.916h-1.152
			c-1.026,0-1.565,0.486-1.565,1.386c0,0.864,0.432,1.225,1.062,1.225c0.684,0,1.278-0.468,1.656-0.774V27.916z"/>
		<path fill="#0C2E82" d="M115.188,31.894V26.26c0-0.738-0.252-1.152-0.9-1.152c-0.684,0-1.458,0.54-1.854,0.864v5.922h-1.944v-8.46
			h1.944v1.08c0.576-0.611,1.35-1.26,2.537-1.26c1.261,0,2.16,0.756,2.16,2.466v6.174H115.188z"/>
		<path fill="#0C2E82" d="M124.512,31.894v-0.81c-0.36,0.396-1.044,0.99-2.178,0.99c-1.692,0-3.061-1.134-3.061-4.446
			c0-3.366,1.765-4.374,3.223-4.374c1.098,0,1.655,0.414,2.016,0.756v-4.662h1.944v12.546H124.512z M124.512,25.504
			c-0.252-0.216-0.792-0.648-1.53-0.648c-0.899,0-1.674,0.576-1.674,2.754c0,2.376,0.684,2.861,1.494,2.861
			c0.756,0,1.35-0.521,1.71-0.846V25.504z"/>
		<path fill="#0C2E82" d="M133.151,32.074c-1.188,0-1.8-0.486-2.195-0.792l-0.307,0.612h-1.494V19.348h1.944v4.734
			c0.378-0.324,0.99-0.828,2.179-0.828c1.602,0,3.06,1.098,3.06,4.284C136.338,31.102,134.844,32.074,133.151,32.074z
			 M132.702,24.856c-0.631,0-1.242,0.432-1.603,0.756v4.248c0.433,0.306,1.026,0.611,1.692,0.611c0.81,0,1.512-0.521,1.512-2.952
			C134.304,25.288,133.512,24.856,132.702,24.856z"/>
		<path fill="#0C2E82" d="M142.602,31.894v-0.792c-0.432,0.432-1.116,0.972-2.214,0.972c-1.261,0-2.557-0.594-2.557-2.521
			c0-2.124,1.566-2.826,3.456-2.826h1.314v-0.414c0-0.972-0.36-1.368-1.26-1.368c-0.864,0-1.854,0.359-2.538,0.612l-0.378-1.404
			c0.773-0.36,1.89-0.9,3.294-0.9c1.998,0,2.826,1.062,2.826,2.88v5.76H142.602z M142.602,27.916h-1.152
			c-1.025,0-1.565,0.486-1.565,1.386c0,0.864,0.432,1.225,1.062,1.225c0.685,0,1.278-0.468,1.656-0.774V27.916z"/>
		<path fill="#0C2E82" d="M147.119,31.894V19.348h1.944v12.546H147.119z"/>
		<path fill="#0C2E82" d="M160.925,31.894h-2.395l-3.384-12.006h2.124l2.484,9.433l2.412-9.433h2.124L160.925,31.894z"/>
		<path fill="#0C2E82" d="M166.647,28.366c0.108,1.386,0.738,2.105,1.71,2.105c1.009,0,1.818-0.468,2.358-0.81l0.685,1.296
			c-0.469,0.342-1.404,1.116-3.097,1.116c-2.016,0-3.708-1.08-3.708-4.374c0-2.97,1.458-4.446,3.528-4.446
			c2.304,0,3.42,1.638,3.42,5.112H166.647z M168.124,24.712c-0.972,0-1.404,0.81-1.477,2.394h2.826
			C169.474,25.72,169.096,24.712,168.124,24.712z"/>
		<path fill="#0C2E82" d="M175.54,26.404v5.49h-1.944v-8.46h1.944v1.278c0.468-0.81,1.188-1.458,2.538-1.458v1.782
			C176.962,25.036,176.008,25.792,175.54,26.404z"/>
		<path fill="#0C2E82" d="M183.676,32.074c-1.188,0-1.8-0.486-2.196-0.792l-0.306,0.612h-1.494V19.348h1.944v4.734
			c0.378-0.324,0.989-0.828,2.178-0.828c1.602,0,3.06,1.098,3.06,4.284C186.861,31.102,185.367,32.074,183.676,32.074z
			 M183.226,24.856c-0.63,0-1.242,0.432-1.602,0.756v4.248c0.432,0.306,1.025,0.611,1.691,0.611c0.811,0,1.513-0.521,1.513-2.952
			C184.828,25.288,184.035,24.856,183.226,24.856z"/>
		<path fill="#0C2E82" d="M192.173,32.074c-2.143,0-3.87-1.386-3.87-4.41c0-3.024,1.71-4.41,3.87-4.41
			c2.124,0,3.869,1.386,3.869,4.41C196.042,30.688,194.314,32.074,192.173,32.074z M192.173,24.802
			c-1.063,0-1.837,0.738-1.837,2.862c0,2.07,0.757,2.844,1.837,2.844c1.062,0,1.817-0.72,1.817-2.844
			C193.99,25.558,193.252,24.802,192.173,24.802z"/>
		<path fill="#0C2E82" d="M202.522,31.894V26.26c0-0.738-0.252-1.152-0.899-1.152c-0.685,0-1.458,0.54-1.854,0.864v5.922h-1.944
			v-8.46h1.944v1.08c0.576-0.611,1.351-1.26,2.538-1.26c1.26,0,2.16,0.756,2.16,2.466v6.174H202.522z"/>
		<path fill="#0C2E82" d="M211.36,31.894v-0.81c-0.36,0.396-1.044,0.99-2.178,0.99c-1.692,0-3.061-1.134-3.061-4.446
			c0-3.366,1.765-4.374,3.223-4.374c1.098,0,1.655,0.414,2.016,0.756v-4.662h1.944v12.546H211.36z M211.36,25.504
			c-0.252-0.216-0.792-0.648-1.53-0.648c-0.899,0-1.674,0.576-1.674,2.754c0,2.376,0.685,2.861,1.494,2.861
			c0.756,0,1.35-0.521,1.71-0.846V25.504z"/>
	</g>
</g>
</svg>
