<?xml version="1.0" encoding="utf-8"?>
<!-- Generator: Adobe Illustrator 14.0.0, SVG Export Plug-In . SVG Version: 6.00 Build 43363)  -->
<!DOCTYPE svg PUBLIC "-//W3C//DTD SVG 1.1//EN" "http://www.w3.org/Graphics/SVG/1.1/DTD/svg11.dtd">
<svg version="1.1" id="Laag_1" xmlns="http://www.w3.org/2000/svg" xmlns:xlink="http://www.w3.org/1999/xlink" x="0px" y="0px"
	 width="380.621px" height="380.62px" viewBox="0 0 380.621 380.62" enable-background="new 0 0 380.621 380.62"
	 xml:space="preserve">
<g>
	<path fill-rule="evenodd" clip-rule="evenodd" fill="#007647" stroke="#000000" stroke-width="5.4962" d="M4.546,189.652
		c0,102.795,83.623,186.42,186.418,186.42c102.792,0,186.417-83.625,186.417-186.42c0-102.793-83.625-186.424-186.417-186.424
		C88.169,3.228,4.546,86.858,4.546,189.652z M52.478,189.652c0-76.357,62.125-138.483,138.486-138.483
		c76.357,0,138.479,62.126,138.479,138.483c0,76.361-62.122,138.48-138.479,138.48C114.603,328.132,52.478,266.013,52.478,189.652z"
		/>
</g>
<path fill="none" d="M48.125,147.262c23.42-79.967,106.51-125.594,185.568-101.9c79.063,23.693,124.17,107.729,100.746,187.701
	c-23.426,79.971-106.51,125.594-185.566,101.895C69.805,311.27,24.698,227.236,48.125,147.262z"/>
<text transform="matrix(0.6452 -0.7491 0.7577 0.6526 72.2075 98.4453)" fill="#FFFFFF" font-family="'MyriadPro-Black'" font-size="36.6414">B</text>
<text transform="matrix(0.7328 -0.6637 0.6713 0.7411 85.0825 83.603)" fill="#FFFFFF" font-family="'MyriadPro-Black'" font-size="36.6414">a</text>
<text transform="matrix(0.7989 -0.5825 0.5891 0.808 98.0898 71.9331)" fill="#FFFFFF" font-family="'MyriadPro-Black'" font-size="36.6414">s</text>
<text transform="matrix(0.8572 -0.4927 0.4983 0.867 109.6333 63.3901)" fill="#FFFFFF" font-family="'MyriadPro-Black'" font-size="36.6414">e</text>
<text transform="matrix(0.9137 -0.3777 0.382 0.9242 125.3633 54.2583)" fill="#FFFFFF" font-family="'MyriadPro-Black'" font-size="36.6414">b</text>
<text transform="matrix(0.9545 -0.2578 0.2608 0.9654 144.46 46.4736)" fill="#FFFFFF" font-family="'MyriadPro-Black'" font-size="36.6414">a</text>
<text transform="matrix(0.9735 -0.1728 0.1748 0.9846 161.3711 42.1089)" fill="#FFFFFF" font-family="'MyriadPro-Black'" font-size="36.6414">l</text>
<text transform="matrix(0.9819 -0.1159 0.1172 0.9931 169.8018 40.6123)" fill="#FFFFFF" font-family="'MyriadPro-Black'" font-size="36.6414">l</text>
<text transform="matrix(0.9868 -0.0614 0.0621 0.9981 178.2949 39.6226)" fill="#FFFFFF" font-family="'MyriadPro-Black'" font-size="36.6414"> </text>
<text transform="matrix(0.9879 0.0393 -0.0398 0.9992 185.9678 38.7754)" fill="#FFFFFF" font-family="'MyriadPro-Black'" font-size="36.6414">A</text>
<text transform="matrix(0.9744 0.1675 -0.1694 0.9856 208.1118 39.8525)" fill="#FFFFFF" font-family="'MyriadPro-Black'" font-size="36.6414">c</text>
<text transform="matrix(0.9516 0.2683 -0.2714 0.9625 224.104 42.6416)" fill="#FFFFFF" font-family="'MyriadPro-Black'" font-size="36.6414">a</text>
<text transform="matrix(0.9069 0.3937 -0.3982 0.9173 240.9731 47.3745)" fill="#FFFFFF" font-family="'MyriadPro-Black'" font-size="36.6414">d</text>
<text transform="matrix(0.8481 0.5081 -0.514 0.8578 259.7075 55.5889)" fill="#FFFFFF" font-family="'MyriadPro-Black'" font-size="36.6414">e</text>
<text transform="matrix(0.7544 0.639 -0.6463 0.7631 275.5854 64.5376)" fill="#FFFFFF" font-family="'MyriadPro-Black'" font-size="36.6414">m</text>
<text transform="matrix(0.6445 0.7497 -0.7583 0.6519 298.3188 84.4829)" fill="#FFFFFF" font-family="'MyriadPro-Black'" font-size="36.6414">y</text>
<path fill="none" d="M24.002,140.635C-3.296,233.309,49.274,330.674,141.42,358.123c92.148,27.465,188.975-25.404,216.27-118.066
	c27.299-92.668-25.27-190.039-117.41-217.492C148.133-4.893,51.301,47.975,24.002,140.635z"/>
<text transform="matrix(0.803 0.5865 -0.5898 0.8075 80.5806 326.1396)" fill="#FFFFFF" font-family="'MyriadPro-Black'" font-size="36.6414">K</text>
<text transform="matrix(0.8678 0.4856 -0.4883 0.8727 98.1011 338.7441)" fill="#FFFFFF" font-family="'MyriadPro-Black'" font-size="36.6414">e</text>
<text transform="matrix(0.9203 0.3768 -0.3789 0.9254 115.6743 348.5156)" fill="#FFFFFF" font-family="'MyriadPro-Black'" font-size="36.6414">n</text>
<text transform="matrix(0.9601 0.2589 -0.2604 0.9655 136.1157 356.7559)" fill="#FFFFFF" font-family="'MyriadPro-Black'" font-size="36.6414">n</text>
<text transform="matrix(0.9843 0.1412 -0.142 0.9899 157.4683 362.3398)" fill="#FFFFFF" font-family="'MyriadPro-Black'" font-size="36.6414">e</text>
<text transform="matrix(0.9944 -0.0094 0.0094 1 177.3628 365.5176)" fill="#FFFFFF" font-family="'MyriadPro-Black'" font-size="36.6414">m</text>
<text transform="matrix(0.9814 -0.1601 0.161 0.987 209.5894 364.6084)" fill="#FFFFFF" font-family="'MyriadPro-Black'" font-size="36.6414">e</text>
<text transform="matrix(0.9611 -0.2552 0.2566 0.9665 229.3667 361.1348)" fill="#FFFFFF" font-family="'MyriadPro-Black'" font-size="36.6414">r</text>
<text transform="matrix(0.9411 -0.3213 0.3231 0.9464 242.5923 357.498)" fill="#FFFFFF" font-family="'MyriadPro-Black'" font-size="36.6414">l</text>
<text transform="matrix(0.9101 -0.4006 0.4028 0.9153 252.5083 354.2324)" fill="#FFFFFF" font-family="'MyriadPro-Black'" font-size="36.6414">a</text>
<text transform="matrix(0.8564 -0.5054 0.5083 0.8612 270.2524 346.3896)" fill="#FFFFFF" font-family="'MyriadPro-Black'" font-size="36.6414">n</text>
<text transform="matrix(0.7854 -0.6099 0.6133 0.7899 289.2017 335.0801)" fill="#FFFFFF" font-family="'MyriadPro-Black'" font-size="36.6414">d</text>
<text transform="matrix(0.7265 -0.679 0.6828 0.7306 306.6333 321.0693)" fill="#FFFFFF" font-family="'MyriadPro-Black'" font-size="36.6414"> </text>
<line fill="none" stroke="#BCBEC0" stroke-width="3.8605" stroke-linecap="round" x1="190.679" y1="205.347" x2="203.443" y2="199.906"/>
<line fill="none" stroke="#BCBEC0" stroke-width="3.8605" stroke-linecap="round" x1="192.443" y1="189.179" x2="207.433" y2="184.479"/>
<line fill="none" stroke="#BCBEC0" stroke-width="3.8605" stroke-linecap="round" x1="194.794" y1="176.541" x2="208.764" y2="173.752"/>
<line fill="none" stroke="#BCBEC0" stroke-width="3.8605" stroke-linecap="round" x1="197.877" y1="162.732" x2="210.98" y2="160.898"/>
<line fill="none" stroke="#BCBEC0" stroke-width="3.8605" stroke-linecap="round" x1="203.837" y1="150.42" x2="217.186" y2="149.815"/>
<line fill="none" stroke="#BCBEC0" stroke-width="3.8605" stroke-linecap="round" x1="211.255" y1="138.041" x2="225.95" y2="139.803"/>
<line fill="none" stroke="#BCBEC0" stroke-width="3.8605" stroke-linecap="round" x1="218.601" y1="127.165" x2="231.536" y2="131.277"/>
<line fill="none" stroke="#BCBEC0" stroke-width="3.8605" stroke-linecap="round" x1="226.089" y1="117.907" x2="235.804" y2="122.775"/>
<line fill="none" stroke="#BCBEC0" stroke-width="3.8605" stroke-linecap="round" x1="234.769" y1="111.294" x2="245.79" y2="116.437"/>
<line fill="none" stroke="#BCBEC0" stroke-width="3.8605" stroke-linecap="round" x1="243.29" y1="105.121" x2="252.404" y2="110.707"/>
<line fill="none" stroke="#BCBEC0" stroke-width="3.8605" stroke-linecap="round" x1="250.629" y1="99.386" x2="258.857" y2="106.733"/>
<line fill="none" stroke="#BCBEC0" stroke-width="3.8605" stroke-linecap="round" x1="260.631" y1="99.246" x2="268.865" y2="108.063"/>
<line fill="none" stroke="#BCBEC0" stroke-width="3.8605" stroke-linecap="round" x1="269.744" y1="97.916" x2="276.5" y2="105.555"/>
<line fill="none" stroke="#BCBEC0" stroke-width="3.8605" stroke-linecap="round" x1="191.917" y1="219.412" x2="204.774" y2="211.875"/>
<line fill="none" stroke="#BCBEC0" stroke-width="3.8605" stroke-linecap="round" x1="192.156" y1="232.973" x2="204.33" y2="226.059"/>
<line fill="none" stroke="#BCBEC0" stroke-width="3.8605" stroke-linecap="round" x1="195.969" y1="245.904" x2="207.433" y2="238.027"/>
<line fill="none" stroke="#BCBEC0" stroke-width="3.8605" stroke-linecap="round" x1="200.09" y1="256.193" x2="210.371" y2="247.371"/>
<line fill="none" stroke="#BCBEC0" stroke-width="3.8605" stroke-linecap="round" x1="206.85" y1="267.361" x2="215.075" y2="257.661"/>
<line fill="none" stroke="#BCBEC0" stroke-width="3.8605" stroke-linecap="round" x1="213.028" y1="275.888" x2="219.436" y2="265.166"/>
<line fill="none" stroke="#BCBEC0" stroke-width="3.8605" stroke-linecap="round" x1="219.805" y1="282.418" x2="225.474" y2="271.943"/>
<line fill="none" stroke="#BCBEC0" stroke-width="3.8605" stroke-linecap="round" x1="226.246" y1="287.639" x2="231.758" y2="277.242"/>
<line fill="none" stroke="#BCBEC0" stroke-width="3.8605" stroke-linecap="round" x1="233.006" y1="292.343" x2="237.796" y2="282.79"/>
<line fill="none" stroke="#BCBEC0" stroke-width="3.8605" stroke-linecap="round" x1="240.349" y1="295.283" x2="244.082" y2="286.362"/>
<line fill="none" stroke="#BCBEC0" stroke-width="3.8605" stroke-linecap="round" x1="247.698" y1="295.872" x2="250.931" y2="291.754"/>
<line fill="none" stroke="#BCBEC0" stroke-width="3.8605" stroke-linecap="round" x1="265.333" y1="96.012" x2="265.544" y2="87.592"/>
<line fill="none" stroke="#BCBEC0" stroke-width="3.8605" stroke-linecap="round" x1="255.049" y1="96.305" x2="255.342" y2="86.31"/>
<line fill="none" stroke="#BCBEC0" stroke-width="3.8605" stroke-linecap="round" x1="245.937" y1="99.83" x2="244.762" y2="89.252"/>
<line fill="none" stroke="#BCBEC0" stroke-width="3.8605" stroke-linecap="round" x1="235.944" y1="106.297" x2="233.591" y2="95.423"/>
<line fill="none" stroke="#BCBEC0" stroke-width="3.8605" stroke-linecap="round" x1="228.305" y1="112.766" x2="225.95" y2="101.303"/>
<line fill="none" stroke="#BCBEC0" stroke-width="3.8605" stroke-linecap="round" x1="221.252" y1="120.699" x2="215.664" y2="108.94"/>
<line fill="none" stroke="#BCBEC0" stroke-width="3.8605" stroke-linecap="round" x1="214.193" y1="131.277" x2="205.229" y2="119.378"/>
<line fill="none" stroke="#BCBEC0" stroke-width="3.8605" stroke-linecap="round" x1="206.552" y1="142.744" x2="196.268" y2="132.456"/>
<line fill="none" stroke="#BCBEC0" stroke-width="3.8605" stroke-linecap="round" x1="200.969" y1="155.379" x2="187.745" y2="146.563"/>
<line fill="none" stroke="#BCBEC0" stroke-width="3.8605" stroke-linecap="round" x1="194.794" y1="169.784" x2="183.041" y2="161.259"/>
<line fill="none" stroke="#BCBEC0" stroke-width="3.8605" stroke-linecap="round" x1="191.265" y1="182.716" x2="178.044" y2="176.541"/>
<line fill="none" stroke="#BCBEC0" stroke-width="3.8605" stroke-linecap="round" x1="189.511" y1="197.705" x2="174.518" y2="192.708"/>
<line fill="none" stroke="#BCBEC0" stroke-width="3.8605" stroke-linecap="round" x1="188.919" y1="212.695" x2="172.751" y2="208.873"/>
<line fill="none" stroke="#BCBEC0" stroke-width="3.8605" stroke-linecap="round" x1="190.386" y1="226.509" x2="173.05" y2="224.745"/>
<line fill="none" stroke="#BCBEC0" stroke-width="3.8605" stroke-linecap="round" x1="192.443" y1="241.203" x2="175.399" y2="240.028"/>
<line fill="none" stroke="#BCBEC0" stroke-width="3.8605" stroke-linecap="round" x1="196.416" y1="252.52" x2="180.1" y2="254.723"/>
<line fill="none" stroke="#BCBEC0" stroke-width="3.8605" stroke-linecap="round" x1="202.437" y1="262.953" x2="187.745" y2="265.596"/>
<line fill="none" stroke="#BCBEC0" stroke-width="3.8605" stroke-linecap="round" x1="208.315" y1="272.651" x2="195.383" y2="276.474"/>
<line fill="none" stroke="#BCBEC0" stroke-width="3.8605" stroke-linecap="round" x1="213.842" y1="281.375" x2="201.941" y2="284.753"/>
<line fill="none" stroke="#BCBEC0" stroke-width="3.8605" stroke-linecap="round" x1="221.519" y1="287.621" x2="210.641" y2="292.618"/>
<line fill="none" stroke="#BCBEC0" stroke-width="3.8605" stroke-linecap="round" x1="226.974" y1="292.986" x2="218.744" y2="297.986"/>
<line fill="none" stroke="#BCBEC0" stroke-width="3.8605" stroke-linecap="round" x1="235.944" y1="296.165" x2="227.815" y2="302.012"/>
<line fill="none" stroke="#BCBEC0" stroke-width="3.8605" stroke-linecap="round" x1="243.805" y1="299.398" x2="235.393" y2="305.338"/>
<line fill="none" stroke="#BCBEC0" stroke-width="3.8605" stroke-linecap="round" x1="129.842" y1="82.785" x2="135.622" y2="89.087"/>
<line fill="none" stroke="#BCBEC0" stroke-width="3.8605" stroke-linecap="round" x1="123.364" y1="88.955" x2="131.191" y2="95.735"/>
<line fill="none" stroke="#BCBEC0" stroke-width="3.8605" stroke-linecap="round" x1="120.435" y1="99.246" x2="128.529" y2="107.262"/>
<line fill="none" stroke="#BCBEC0" stroke-width="3.8605" stroke-linecap="round" x1="114.559" y1="110.412" x2="121.438" y2="117.457"/>
<line fill="none" stroke="#BCBEC0" stroke-width="3.8605" stroke-linecap="round" x1="107.802" y1="121.876" x2="114.559" y2="128.339"/>
<line fill="none" stroke="#BCBEC0" stroke-width="3.8605" stroke-linecap="round" x1="100.999" y1="131.223" x2="108.643" y2="139.155"/>
<line fill="none" stroke="#BCBEC0" stroke-width="3.8605" stroke-linecap="round" x1="97.669" y1="142.563" x2="103.843" y2="151.383"/>
<line fill="none" stroke="#BCBEC0" stroke-width="3.8605" stroke-linecap="round" x1="92.669" y1="154.601" x2="99.137" y2="163.124"/>
<line fill="none" stroke="#BCBEC0" stroke-width="3.8605" stroke-linecap="round" x1="88.117" y1="165.458" x2="93.702" y2="176.041"/>
<line fill="none" stroke="#BCBEC0" stroke-width="3.8605" stroke-linecap="round" x1="82.528" y1="177.35" x2="88.7" y2="187.053"/>
<line fill="none" stroke="#BCBEC0" stroke-width="3.8605" stroke-linecap="round" x1="77.821" y1="187.767" x2="85.089" y2="197.69"/>
<line fill="none" stroke="#BCBEC0" stroke-width="3.8605" stroke-linecap="round" x1="74.144" y1="198.039" x2="79.729" y2="207.742"/>
<line fill="none" stroke="#BCBEC0" stroke-width="3.8605" stroke-linecap="round" x1="70.009" y1="205.219" x2="74.712" y2="215.802"/>
<line fill="none" stroke="#BCBEC0" stroke-width="3.8605" stroke-linecap="round" x1="119.263" y1="93.662" x2="111.622" y2="95.718"/>
<line fill="none" stroke="#BCBEC0" stroke-width="3.8605" stroke-linecap="round" x1="115.148" y1="104.828" x2="104.565" y2="106.595"/>
<line fill="none" stroke="#BCBEC0" stroke-width="3.8605" stroke-linecap="round" x1="109.914" y1="115.239" x2="98.69" y2="117.172"/>
<line fill="none" stroke="#BCBEC0" stroke-width="3.8605" stroke-linecap="round" x1="104.151" y1="125.436" x2="93.65" y2="126.519"/>
<line fill="none" stroke="#BCBEC0" stroke-width="3.8605" stroke-linecap="round" x1="99.253" y1="137.392" x2="89.848" y2="138.566"/>
<line fill="none" stroke="#BCBEC0" stroke-width="3.8605" stroke-linecap="round" x1="94.151" y1="148.132" x2="85.335" y2="148.716"/>
<line fill="none" stroke="#BCBEC0" stroke-width="3.8605" stroke-linecap="round" x1="88.563" y1="159.145" x2="78.439" y2="161.342"/>
<line fill="none" stroke="#BCBEC0" stroke-width="3.8605" stroke-linecap="round" x1="83.761" y1="170.649" x2="72.978" y2="171.78"/>
<line fill="none" stroke="#BCBEC0" stroke-width="3.8605" stroke-linecap="round" x1="78.419" y1="181.605" x2="69.574" y2="182.618"/>
<line fill="none" stroke="#BCBEC0" stroke-width="3.8605" stroke-linecap="round" x1="73.564" y1="191.041" x2="64.699" y2="191.925"/>
<line fill="none" stroke="#BCBEC0" stroke-width="3.8605" stroke-linecap="round" x1="69.356" y1="199.95" x2="62.411" y2="200.411"/>
<circle fill="none" stroke="#000000" stroke-width="4.9592" cx="190.153" cy="189.542" r="126.794"/>
<g>
	<path d="M375.825,188.219c0-1.862-0.78-3.705-2.297-5.007c-2.729-2.343-6.83-2.071-9.223,0.615c-0.652,0.73-1.365,1.38-2.032,2.094
		c-2.344,2.24-7.619,5.946-15.73,10.163c4.217-3.172,6.963-27.238,1.5-36.855l-0.792-3.944c-1.004-8.99-7.036-10.84-11.916-10.817
		c-2.576,0.014-4.916,0.783-6.935,2.042c0.316-0.719,0.957-2.169,0.957-2.169s-3.437-0.153-6.655-0.307c0-0.082,0-0.163-0.009-0.252
		c-0.183-4.684-3.849-9.599-11.49-9.324c-8.665,0.331-12.911,6.035-15.707,10.382c-2.52,0.333-4.616,0.809-6.432,1.43
		c-0.464-2.352-1.639-4.486-3.469-6.09c-2.259-1.987-5.188-2.973-8.251-2.77c-4.382,0.281-8.886,2.592-12.038,6.171
		c-2.807,3.196-4.219,7.062-3.976,10.887c0.015,0.168,0.041,0.336,0.055,0.499c-3.607,1.836-7.104,4.901-10.104,8.546
		c-0.742-1.554-1.746-2.888-2.979-3.918c-0.486-0.4-1.072-0.609-1.612-0.917c11.107-14.831,13.338-23.131,13.35-28.243
		c0-0.641-0.041-1.239-0.091-1.79c-0.31-3.373-1.78-6.313-4.141-8.271c-2.149-1.789-4.89-2.616-7.72-2.355
		c-9.854,0.925-27.948,21.562-33.484,29.621c-3.79,5.464-6.604,10.794-8.734,16.072c-0.444-0.331-0.961-0.522-1.445-0.783
		c10.209-14.582,12.431-22.881,12.431-28.035c0-0.882-0.059-1.67-0.151-2.387c-0.826-6.609-6.066-11.02-12.195-10.249
		c-9.807,1.236-27.239,22.447-32.521,30.674c-3.683,5.699-6.403,11.25-8.373,16.708c-0.937-1.444-2.184-2.775-3.703-3.846
		c-3.245-2.291-7.273-3.144-11.348-2.395c-2.964,0.548-6.484,1.81-10.188,3.575c0.777-3.364,1.183-6.733,1.189-9.77
		c0-1.491-0.093-2.909-0.284-4.199c-1.787-12.151-12.146-25.434-51.389-19.668c-26.657,3.916-62.417,12.708-70.056,25.097
		c-2.657,4.536-4.455,19.024-3.408,26.106c0.934,6.358,5.58,6.231,12.888,5.158c3.248-0.481,6.65-2.071,9.707-2.97l3.883-1.6
		c0,0,10.072-4.196,12.899-4.91c-0.592,1.207-4.823,10.888-5.127,11.526c-15.451,4.269-21.419,15.162-21.64,23.809
		c-0.015,0.169-0.018,0.337-0.018,0.511c0,3.388,1.795,6.275,4.867,8.347c-2.903,6.867-6.615,15.654-6.615,15.654
		c-1.096,2.482-2.079,5.283-2.079,8.659c-0.009,0.823,0.052,1.699,0.183,2.604c0.878,5.91,6.305,9.843,12.372,8.955
		c5.249-0.777,11.499-5.551,14.228-10.869c1.082-2.105,1.615-4.252,1.615-6.34c0-0.296-0.078-0.58-0.099-0.87
		c1.209-2.459,3.335-6.786,5.6-11.402c15.669,3.329,226.92,70.9,313.684-34.708c1.818-1.751,2.935-2.97,3.35-3.463
		c0.008-0.011,0.02-0.017,0.028-0.029c-0.003,0-0.006,0-0.009,0.006c0.038-0.046,0.14-0.157,0.166-0.191
		C375.329,191.189,375.825,189.698,375.825,188.219z M104.186,206.025c0.046,0.209,0.11,0.43,0.168,0.633
		c-2.259-0.453-4.739-0.899-7.485-1.357c0,0-5.971-0.975-9.37-1.531c6.945-2.36,12.441-4.269,17.003-6.038
		C103.783,200.567,103.667,203.34,104.186,206.025z M96.341,170.493c0,0-7.497,3.178-14.813,6.287
		c0.093-0.206,0.203-0.452,0.203-0.452c1.105-2.375,2.337-5.104,2.964-8.28c6.922-1.517,19.599-4.307,19.599-4.307
		c0.948-0.22,2.352-0.429,3.86-0.597C104.42,166.041,99.665,169.054,96.341,170.493z M158.611,218.206
		c2.77-2.077,5.513-4.652,7.932-7.157c4.576,5.358,10.208,5.313,12.4,5.028c7.001-0.87,14.027-5.847,20.93-14.396
		c1.566-0.342,3.051-0.76,4.449-1.258c4.332,10.48,12.345,10.817,15.213,10.55c7.019-0.661,14.19-5.394,21.354-13.694
		c1.053-0.186,2.079-0.412,3.06-0.678c2.767,6.658,8.378,11.861,16.333,11.351c5.078-0.331,9.927-2.842,14.274-6.247
		c2.581,4.396,7.247,7.111,12.902,6.891c7.122-0.267,13.995-4.57,20.213-9.802c4.478,3.741,10.438,6.049,16.869,6.305
		c0.528,0.023,1.062-0.006,1.596-0.029C292.303,217.736,235.975,229.336,158.611,218.206z"/>
	<path fill="#F58220" stroke="#FFFFFF" stroke-width="1.5519" d="M114.072,202.435c1.099,5.505,8.399,11.531,11.383,11.062
		c2.445-0.4,8.373-7.019,10.139-8.949l8.529-9.432l0.252,0.174c-0.928,3.097-2.581,9.141-2.03,12.551
		c0.493,3.086,2.494,5.383,6.006,4.82c4.562-0.726,14.642-11.264,19.607-17.882c1.067,5.313,3.602,12.267,9.373,11.53
		c7.064-0.888,13.729-8.352,17.733-13.74c5.52-0.789,9.988-2.541,13.715-6.154c0.493,5.174,2.438,15.417,9.391,14.762
		c7.088-0.661,13.98-7.912,18.154-13.167c4.993-0.545,9.17-1.902,12.757-4.711c-0.058,0.873-0.069,1.754-0.012,2.627
		c0.349,5.488,3.721,12.617,10.069,12.216c7.593-0.499,15.753-9.39,20.451-15.65l2.042-1.769l0.22,0.214
		c-1.284,3.173-2.525,7.321-2.393,10.877c0.166,4.304,2.865,7.122,7.059,6.966c6.978-0.267,15.136-7.279,21.339-13.278
		c2.856,6.26,9.906,9.519,16.345,9.774c8.628,0.383,23.473-3.985,16.872-28.776c-1.221-4.585-1.661-8.398-2.122-12.496
		c-0.337-3.01-0.986-3.976-4.22-3.967c-3.881,0.029-5.913,3.489-6.104,7.05l-23.268,21.582c-0.864,0.867-8.987,8.835-11.168,8.922
		c-2.482,0.087-3.291-1.282-3.378-3.652c-0.244-6.464,5.559-15.533,9.051-20.408c11.869,0.302,18.363-3.796,23.032-14.219
		l-12.477-0.209c1.021-1.551,4.011-5.226,3.938-7.163c-0.066-1.723-2.126-1.969-3.532-1.917c-6.241,0.241-8.428,5.394-11.484,9.93
		c-11.513,0.864-12.305,2.627-17.763,12.331l-1.113,1.972c5.675-1.073,3.648-0.569,10.217-0.815
		c-2.808,5.232-6.746,9.768-11.2,13.906l-0.09-0.279c-4.101,3.402-9.332,9.456-15.034,9.821c-4.944,0.319-6.71-1.951-6.136-6.411
		c4.32-3.411,14.352-13.674,14.001-19.051c-0.145-2.366-3.086-2.827-4.918-2.714c-4.977,0.324-13.59,8.517-16.91,18.27
		c-2.889,2.43-5.966,4.533-9.953,4.138c1.452-4.141,4.314-9.393,3.892-13.905c-0.183-2.033-1.082-4.664-3.66-4.417
		c-6.331,0.592-13.935,11.91-13.349,18.137c0.159,1.717,0.902,2.735,1.896,4.049c-1.633,2.315-3.294,5.396-6.676,6.254
		c-4.025,0.916-7.125-4.426-5.82-11.367l15.202-17.992c6.249-7.293,20.631-24.874,19.72-34.647c-0.194-2.039-1.34-3.877-3.494-3.677
		c-4.501,0.42-20.129,15.083-27.853,26.315c-6.574,9.495-11.417,19.906-11.695,31.385c-2.764,2.462-5.73,4.567-9.66,4.301
		c1.328-4.185,4.022-9.53,3.457-14.016c-0.258-2.033-1.238-4.628-3.799-4.31c-6.309,0.797-13.546,12.36-12.764,18.561
		c0.209,1.712,0.989,2.704,2.021,3.98c-1.552,2.373-3.112,5.504-6.461,6.467c-4.002,1.05-7.271-4.188-6.188-11.178l14.623-18.465
		c6.006-7.491,19.815-25.523,18.586-35.259c-0.253-2.03-1.456-3.836-3.59-3.567c-4.496,0.565-19.643,15.733-27,27.194
		c-6.76,10.455-11.464,21.901-10.588,34.442c-3.907,3.84-8.619,9.274-12.726,9.936c-1.7,0.272-3.419-0.221-3.707-2.03
		c-0.794-4.994,7.265-13.939,6.72-17.347c-0.374-2.34-1.627-3.338-3.785-3.868c0.908-0.467,3.509-1.969,3.297-3.257
		c-0.206-1.276-2.854-4.89-7.734-4.005C137.005,171.137,111.52,189.193,114.072,202.435z M328.765,162.909
		c0.67,3.651,1.12,6.568,1.45,8.831c-0.284,6.252-2.004,8.097-8.447,12.116c-2.065-2.787-4.458-6.119-8.439-6.305L328.765,162.909z
		 M243.116,133.34l0.243,0.191c-1.47,4.034-3.257,10.374-23.601,34.801l-0.234-0.194
		C224.688,155.087,233.336,143.348,243.116,133.34z M200.102,137.705l0.241,0.2c-1.338,4.075-2.918,10.463-22.473,35.528
		l-0.238-0.191C182.38,160.044,190.645,148.032,200.102,137.705z M147.564,179.813l0.255,0.183
		c-17.673,24.666-21.02,24.869-23.076,25.641c-1.548,0.58-2.285-1.271-2.477-1.786C121.432,198.63,123.482,191.653,147.564,179.813z
		 M272.968,156.198c4.632-0.299,8.271-5.829,7.999-10.13c-0.125-1.935-1.833-3.23-3.768-3.103c-4.193,0.264-9.109,4.469-8.825,8.88
		C268.543,154.426,270.39,156.364,272.968,156.198z M58.693,204.338l-0.047-0.278c48.634-16.646,55.591-17.528,65.64-28.364
		c4.898-5.267,7.772-16.617,6.734-23.699c-2.613-17.771-29.874-15.045-42.651-13.172c-28.052,4.121-60.921,16.408-64.804,22.005
		c-1.94,2.79-2.819,16.02-2.164,20.463c0.389,2.639,38.275-14.704,48.164-17.864l-16.188,32.754
		c-12.856,2.303-19.097,10.034-19.286,17.44c-0.147,2.854,5.113,3.928,7.424,4.153l-9.802,23.16
		c-1.059,2.424-1.746,4.518-1.363,7.151c0.272,1.81,1.96,2.697,3.628,2.447c3.747-0.557,11.191-6.896,8.807-11.507l9.394-19.129
		c20.239,4.977,216.837,73.608,313.938-28.693C252.167,267.054,94.607,212.48,58.693,204.338z M74.211,173.822
		c1.928-4.257,3.961-7.818,3.112-12.656l25.425-5.58c3.013-0.731,18.032-2.79,18.665,1.508c0.998,6.81-16.446,17.458-21.921,19.825
		l-33.249,14.107L74.211,173.822z"/>
</g>
</svg>
