<?xml version="1.0" encoding="UTF-8" standalone="no"?>
<svg width="30px" height="29px" viewBox="0 0 30 29" version="1.1" xmlns="http://www.w3.org/2000/svg" xmlns:xlink="http://www.w3.org/1999/xlink" xmlns:sketch="http://www.bohemiancoding.com/sketch/ns">
    <!-- Generator: Sketch 3.1 (8751) - http://www.bohemiancoding.com/sketch -->
    <title>Twitter logo</title>
    <desc>Created with Sketch.</desc>
    <defs></defs>
    <g id="Welcome" stroke="none" stroke-width="1" fill="none" fill-rule="evenodd" sketch:type="MSPage">
        <g id="Desktop-HD" sketch:type="MSArtboardGroup" transform="translate(-289.000000, -991.000000)">
            <g id="footer" sketch:type="MSLayerGroup" transform="translate(250.000000, 991.000000)">
                <g id="Twitter-logo-+-Bitmap-+-Imported-Layers-2" sketch:type="MSShapeGroup">
                    <g id="Twitter-logo" transform="translate(39.158730, 0.000000)">
                        <rect id="Rectangle-6" fill="#5EA9DD" x="0" y="0" width="29.1005291" height="28.8461538" rx="4"></rect>
                        <path d="M14.7704339,10.2316393 C14.7704339,10.5633018 14.8068193,10.8862125 14.8769493,11.1959955 C11.4573818,11.0195263 8.42558285,9.33480759 6.39614307,6.77453304 C6.04197226,7.39953125 5.83913832,8.12645759 5.83913832,8.90204687 C5.83913832,10.3700835 6.56552591,11.6653478 7.66955876,12.4242634 C6.99510839,12.4023085 6.36063796,12.2119571 5.8059073,11.8949312 C5.80561387,11.9126612 5.80554051,11.9303156 5.80554051,11.9481964 C5.80554051,13.9985286 7.22383759,15.7088991 9.1061219,16.0975991 C8.76082737,16.194246 8.39734015,16.2460022 8.02211569,16.2460022 C7.75692774,16.2460022 7.49922226,16.2194451 7.24797226,16.1701031 C7.77152591,17.8512759 9.29105657,19.0747906 11.0915471,19.1089679 C9.68337336,20.2439085 7.90921825,20.9204366 5.98152555,20.9204366 C5.6494354,20.9204366 5.32189343,20.9003679 5,20.8613621 C6.82088394,22.0620165 8.98368796,22.7625366 11.307292,22.7625366 C18.8755288,22.7625366 23.0140748,16.3143567 23.0140748,10.7222674 C23.0140748,10.5388571 23.0100401,10.3563522 23.0021909,10.1749036 C23.8060442,9.57819777 24.5036022,8.8328625 25.0552518,7.98424107 C24.3173471,8.32080759 23.5244241,8.54835402 22.6920347,8.65058393 C23.5415898,8.12691027 24.1940328,7.29760312 24.5011814,6.3094058 C23.7062044,6.79437545 22.825619,7.14655938 21.8884015,7.33638259 C21.1378792,6.51386562 20.0684712,6 18.8850653,6 C16.612665,6 14.7704339,7.89468616 14.7704339,10.2316393 Z" id="Imported-Layers-2" fill="#FFFFFF"></path>
                    </g>
                </g>
            </g>
        </g>
    </g>
</svg>