<?xml version="1.0" encoding="utf-8"?>
<!-- Generator: Adobe Illustrator 14.0.0, SVG Export Plug-In . SVG Version: 6.00 Build 43363)  -->
<!DOCTYPE svg PUBLIC "-//W3C//DTD SVG 1.1//EN" "http://www.w3.org/Graphics/SVG/1.1/DTD/svg11.dtd">
<svg version="1.1" id="Layer_1" xmlns="http://www.w3.org/2000/svg" xmlns:xlink="http://www.w3.org/1999/xlink" x="0px" y="0px"
	 width="566.978px" height="178.754px" viewBox="0 0 566.978 178.754" enable-background="new 0 0 566.978 178.754"
	 xml:space="preserve">
<rect x="-51.838" y="-51.776" fill="none" width="670.48" height="274.11"/>
<rect x="123.564" fill="#005288" width="28.99" height="18.364"/>
<path fill="#005288" d="M240.982,90.854c3.381-2.255,5.073-4.993,5.073-8.054V0h-28.986v106.126
	c1.461-0.529,2.832-1.216,4.101-2.063L240.982,90.854z"/>
<polygon fill="#005288" points="444.483,95.043 444.483,107.445 473.472,107.445 473.472,69.392 "/>
<path fill="#F26531" d="M217.063,79.577c0,0.808-0.484,1.611-1.451,2.257l-9.419,6.282c-0.969,0.643-1.935,0.966-3.386,0.966
	h-35.998c-1.451,0-2.416-0.324-3.381-0.966l-9.424-6.282c-0.966-0.646-1.45-1.449-1.45-2.257V18.364h-28.99v64.435
	c0,3.061,1.688,5.799,5.072,8.054l19.81,13.209c3.384,2.257,7.488,3.383,12.081,3.383h48.562c2.87,0,5.549-0.439,7.98-1.319
	L217.063,79.577z"/>
<path fill="#F26531" d="M473.472,69.392V24.645c0-3.058-1.692-5.797-5.073-8.053l-19.813-13.21C445.204,1.128,441.097,0,436.505,0
	h-48.563c-4.588,0-8.695,1.128-12.081,3.382l-19.81,13.21c-3.385,2.255-5.074,4.995-5.074,8.053v82.8h28.992V27.869
	c0-0.807,0.484-1.612,1.449-2.255l9.424-6.284c0.965-0.643,1.932-0.966,3.381-0.966h35.999c1.451,0,2.417,0.323,3.384,0.966
	l9.422,6.284c0.966,0.643,1.449,1.449,1.449,2.255l0.006,67.174L473.472,69.392z"/>
<polygon fill="#0093D0" points="0,0 0,18.364 51.877,18.364 51.877,107.445 80.871,107.445 80.871,18.364 123.564,18.364 123.564,0 
	"/>
<path fill="#0093D0" d="M246.055,82.799c0,3.061-1.692,5.799-5.073,8.054l-19.812,13.209c-1.269,0.848-2.64,1.534-4.101,2.063v1.319
	h28.989L246.055,82.799z"/>
<path fill="#0093D0" d="M301.167,65.081h5.798c4.589,0,8.452-1.129,11.596-3.224l15.948-10.631c3.381-2.258,5.072-4.833,5.072-8.054
	V21.908c0-3.221-1.691-5.799-5.072-8.054L318.561,3.223C315.417,1.126,311.554,0,306.965,0h-60.91l0.001,18.364h54.386
	c1.447,0,2.414,0.323,3.381,0.966l5.315,3.543c0.968,0.644,1.45,1.29,1.45,2.257v14.818c0,0.97-0.482,1.612-1.45,2.256l-5.315,3.542
	c-0.967,0.646-1.934,0.969-3.381,0.969h-54.385l0.001,18.365h17.661c1.688,0,3.137,0.482,4.104,1.449l47.594,40.915h35.521
	L301.167,65.081z"/>
<path fill="#0093D0" d="M566.978,14.808V0h-93.389v18.364h57.549l-57.666,51.027v38.054h93.506V89.082h-81.905l78.773-67.988
	C566.009,19.201,566.938,16.97,566.978,14.808z"/>
<path fill="#005288" d="M66.69,169.832l-3.177-8.598H50.48l-3.131,8.598h-4.344l12.053-31.162h4.158l12.006,31.162H66.69z
	 M57.02,143.668l-5.186,13.971h10.371L57.02,143.668z"/>
<path fill="#005288" d="M103.553,169.832v-13.69c0-3.505,0.047-5.651-4.298-5.651c-5.746,0-5.373,4.997-5.373,9.064v10.277h-3.971
	v-13.69c0-3.505,0.047-5.651-4.297-5.651c-5.747,0-5.42,5.092-5.42,9.155v10.187h-3.971v-22.611h3.691v2.147
	c1.214-1.354,3.223-2.522,6.4-2.522c2.944,0,5.14,0.98,6.307,2.989c1.682-2.009,3.784-2.989,7.054-2.989
	c3.458,0,6.121,1.169,7.242,3.737c0.747,1.728,0.607,3.597,0.607,5.653v13.596H103.553z"/>
<path fill="#005288" d="M129.671,153.806c0-2.568-1.308-3.503-5.139-3.548c-4.812-0.095-6.026,0.979-6.073,3.034
	c-0.047,3.458,1.962,3.131,4.812,3.271c5.139,0.281,9.998-0.326,9.998,6.773c0,5.326-3.831,6.914-9.998,6.869
	c-5.933-0.047-9.204-1.637-9.204-6.963h3.69c0,2.523,1.168,3.552,5.466,3.552c4.205,0,6.074-0.419,6.074-3.736
	c0-2.759-1.635-2.71-5.186-2.853c-4.952-0.186-9.671,0.049-9.624-6.632c0.046-5.374,3.877-6.774,9.997-6.728
	c5.513,0.047,8.876,1.635,8.876,6.96H129.671z"/>
<path fill="#005288" d="M149.761,170.205c-5.092,0-7.802-2.15-7.802-7.055v-12.521h-3.737v-3.408h3.737v-8.551h3.971v8.551h9.998
	v3.408h-9.998v12.521c0,2.663,1.121,3.644,4.018,3.644s4.112-1.075,4.112-3.552h3.691
	C157.75,168.43,154.339,170.205,149.761,170.205z"/>
<path fill="#005288" d="M166.44,159.881c0,4.764,0.841,6.867,6.261,6.867c2.476,0,5.699-0.328,5.699-3.506h3.738
	c0,5.748-5.046,6.963-9.531,6.963c-8.876,0-10.185-4.531-10.185-11.494c0-7.1,1.308-11.865,10.044-11.865
	c9.484,0,9.951,5.324,9.951,13.035H166.44z M172.467,150.258c-4.905,0-5.979,2.194-5.979,6.211h12.006
	C178.494,152.125,177.606,150.258,172.467,150.258z"/>
<path fill="#005288" d="M202.883,153.713c0-2.567-1.028-3.271-4.065-3.271c-5.793,0-5.419,5.607-5.419,9.577v9.813h-3.971v-22.611
	h3.737v2.193c1.449-1.729,3.597-2.568,6.401-2.568c4.671,0,7.147,2.148,7.147,6.867H202.883z"/>
<path fill="#005288" d="M225.986,169.832v-2.289c-1.448,1.635-3.924,2.662-7.194,2.662c-8.783,0-9.297-5.513-9.297-11.681
	c0-6.54,0.934-11.679,9.063-11.679c2.99,0,5.512,0.606,7.147,2.475v-12.053h3.972v32.564H225.986z M219.025,150.583
	c-4.718,0-5.513,2.429-5.513,7.989c0,5.559,0.794,7.988,5.513,7.988c5.139,0,6.728-1.59,6.728-7.988
	C225.753,152.17,224.165,150.583,219.025,150.583z"/>
<path fill="#005288" d="M252.618,169.832v-2.197c-1.354,1.589-4.018,2.57-7.521,2.57c-5.606,0-8.784-1.867-8.784-7.055
	c0-6.4,4.438-7.193,9.344-7.193h6.681c0-3.832,0.093-5.607-5.7-5.607c-2.616,0-5.84,0.141-5.84,3.363h-3.831
	c0-5.56,4.438-6.867,9.998-6.867c9.53,0,9.296,5.372,9.296,9.111v13.875H252.618z M245.47,159.318c-3.504,0-5.14,0.563-5.14,3.785
	c0,2.523,1.168,3.69,5.14,3.69c6.4,0,6.915-2.476,6.915-7.476H245.47z"/>
<path fill="#005288" d="M291.067,169.832v-13.69c0-3.505,0.047-5.651-4.297-5.651c-5.747,0-5.373,4.997-5.373,9.064v10.277h-3.971
	v-13.69c0-3.505,0.047-5.651-4.298-5.651c-5.747,0-5.419,5.092-5.419,9.155v10.187h-3.971v-22.611h3.69v2.147
	c1.214-1.354,3.223-2.522,6.4-2.522c2.944,0,5.139,0.98,6.307,2.989c1.682-2.009,3.785-2.989,7.054-2.989
	c3.457,0,6.12,1.169,7.242,3.737c0.746,1.728,0.606,3.597,0.606,5.653v13.596H291.067z"/>
<path fill="#005288" d="M336.884,169.832v-2.805c-2.383,2.616-5.794,3.178-9.344,3.178c-11.539,0-11.633-6.914-11.633-15.932
	c0-9.481,0.047-15.932,12.754-15.932c7.102,0,11.633,2.01,11.633,8.738h-4.111c0-3.738-2.01-4.906-7.941-4.906
	c-8.269,0-8.177,3.691-8.177,12.1c0,8.504,0.093,12.102,7.989,12.102c8.176,0,8.27-4.064,8.315-10.746h-8.688v-3.645h12.613v17.848
	H336.884z"/>
<path fill="#005288" d="M354.593,178.754h-4.066l3.551-9.203l-8.408-22.33h4.158l6.307,17.705l6.213-17.705h4.158L354.593,178.754z"
	/>
<path fill="#005288" d="M398.835,169.832v-13.69c0-3.505,0.046-5.651-4.299-5.651c-5.746,0-5.371,4.997-5.371,9.064v10.277h-3.972
	v-13.69c0-3.505,0.048-5.651-4.298-5.651c-5.747,0-5.42,5.092-5.42,9.155v10.187h-3.971v-22.611h3.691v2.147
	c1.215-1.354,3.223-2.522,6.4-2.522c2.942,0,5.139,0.98,6.306,2.989c1.681-2.009,3.785-2.989,7.056-2.989
	c3.457,0,6.119,1.169,7.24,3.737c0.748,1.728,0.607,3.597,0.607,5.653v13.596H398.835z"/>
<path fill="#005288" d="M425.373,169.832v-11.914c0-4.859,0.468-7.382-4.951-7.382c-6.354,0-6.168,4.253-6.168,8.876v10.42h-3.971
	v-22.611h3.597v2.193c1.402-1.541,3.553-2.568,6.916-2.568c9.203,0,8.547,5.699,8.547,10.604v12.382H425.373z"/>
<path fill="#005288" d="M452.052,169.832v-2.197c-1.354,1.589-4.018,2.57-7.521,2.57c-5.605,0-8.783-1.867-8.783-7.055
	c0-6.4,4.438-7.193,9.344-7.193h6.682c0-3.832,0.093-5.607-5.699-5.607c-2.617,0-5.84,0.141-5.84,3.363h-3.832
	c0-5.56,4.438-6.867,9.998-6.867c9.531,0,9.297,5.372,9.297,9.111v13.875H452.052z M444.903,159.318
	c-3.503,0-5.138,0.563-5.138,3.785c0,2.523,1.167,3.69,5.138,3.69c6.4,0,6.914-2.476,6.914-7.476H444.903z"/>
<path fill="#005288" d="M477.841,153.806c0-2.568-1.307-3.503-5.138-3.548c-4.812-0.095-6.026,0.979-6.073,3.034
	c-0.047,3.458,1.962,3.131,4.813,3.271c5.138,0.281,9.997-0.326,9.997,6.773c0,5.326-3.831,6.914-9.997,6.869
	c-5.934-0.047-9.204-1.637-9.204-6.963h3.69c0,2.523,1.169,3.552,5.466,3.552c4.204,0,6.074-0.419,6.074-3.736
	c0-2.759-1.636-2.71-5.187-2.853c-4.951-0.186-9.67,0.049-9.624-6.632c0.048-5.374,3.878-6.774,9.997-6.728
	c5.514,0.047,8.877,1.635,8.877,6.96H477.841z"/>
<path fill="#005288" d="M497.931,170.205c-5.092,0-7.801-2.15-7.801-7.055v-12.521h-3.738v-3.408h3.738v-8.551h3.971v8.551h9.996
	v3.408h-9.996v12.521c0,2.663,1.121,3.644,4.018,3.644s4.111-1.075,4.111-3.552h3.691
	C505.921,168.43,502.51,170.205,497.931,170.205z"/>
<path fill="#005288" d="M513.257,143.014c-0.842,0-2.336-0.42-2.336-2.335s1.494-2.337,2.336-2.337c0.887,0,2.336,0.422,2.336,2.337
	S514.099,143.014,513.257,143.014z M511.296,169.832v-22.611h3.97v22.611H511.296z"/>
<path fill="#005288" d="M532.411,170.205c-9.155,0-10.138-4.999-10.138-11.727c0-6.729,0.982-11.633,10.138-11.633
	c4.486,0,9.391,1.123,9.391,6.96h-3.783c0-3.13-3.039-3.363-5.514-3.363c-5.746,0-6.213,2.477-6.213,8.036s0.467,8.129,6.213,8.129
	c2.475,0,5.514-0.232,5.514-3.365h3.783C541.802,169.084,536.897,170.205,532.411,170.205z"/>
<path fill="#005288" d="M563.247,153.806c0-2.568-1.309-3.503-5.139-3.548c-4.813-0.095-6.027,0.979-6.074,3.034
	c-0.046,3.458,1.963,3.131,4.813,3.271c5.138,0.281,9.995-0.326,9.995,6.773c0,5.326-3.828,6.914-9.995,6.869
	c-5.934-0.047-9.204-1.637-9.204-6.963h3.69c0,2.523,1.167,3.552,5.466,3.552c4.205,0,6.073-0.419,6.073-3.736
	c0-2.759-1.636-2.71-5.186-2.853c-4.951-0.186-9.671,0.049-9.624-6.632c0.048-5.374,3.877-6.774,9.998-6.728
	c5.512,0.047,8.877,1.635,8.877,6.96H563.247z"/>
</svg>
